# 3ds Max Wavefront OBJ Exporter v0.97b - (c)2007 guruware
# File Created: 19.05.2019 22:54:35

mtllib Room17.mtl

#
# object room_1x7
#

v  -120.0000 7.0000 -375.0000
v  -116.4000 7.0000 -371.0000
v  -43.6000 7.0000 -371.0000
v  -40.0000 7.0000 -375.0000
v  -120.0000 0.0000 -375.0000
v  -120.0000 5.9500 -375.0000
v  -40.0000 5.9500 -375.0000
v  -40.0000 0.0000 -375.0000
v  -45.0000 0.0000 -370.0000
v  -45.0000 5.9500 -370.0000
v  -115.0000 5.9500 -370.0000
v  -115.0000 0.0000 -370.0000
v  -116.4000 7.0000 -329.0000
v  -120.0000 7.0000 -325.0000
v  -86.0500 7.0000 -325.0000
v  -86.0500 7.0000 -329.0000
v  -43.6000 7.0000 -329.0000
v  -73.9500 7.0000 -329.0000
v  -73.9500 7.0000 -325.0000
v  -40.0000 7.0000 -325.0000
v  -40.0000 5.9500 -325.0000
v  -75.0000 5.9500 -325.0000
v  -75.0000 0.0000 -325.0000
v  -40.0000 0.0000 -325.0000
v  -75.0000 5.9500 -330.0000
v  -75.0000 0.0000 -330.0000
v  -45.0000 5.9500 -330.0000
v  -45.0000 0.0000 -330.0000
v  -115.0000 5.9500 -330.0000
v  -85.0000 5.9500 -330.0000
v  -85.0000 0.0000 -330.0000
v  -115.0000 0.0000 -330.0000
v  -85.0000 5.9500 -325.0000
v  -85.0000 0.0000 -325.0000
v  -120.0000 5.9500 -325.0000
v  -120.0000 0.0000 -325.0000
v  -120.0000 5.9500 -344.9990
v  -120.0000 0.0000 -344.9990
v  -120.0000 0.0000 -355.0000
v  -120.0000 5.9500 -355.0000
v  -120.0000 7.0000 -343.9988
v  -116.4000 7.0000 -344.0009
v  -120.0000 7.0000 -356.0000
v  -116.4000 7.0000 -356.0000
v  -45.0000 0.0000 -355.0000
v  -45.0000 5.9500 -355.0000
v  -45.0000 5.9500 -345.0011
v  -45.0000 0.0000 -345.0011
v  -40.0000 7.0000 -356.0000
v  -43.6000 7.0000 -356.0000
v  -40.0000 7.0000 -343.9988
v  -43.6000 7.0000 -344.0009
v  -115.0000 0.0000 -345.0011
v  -115.0000 5.9500 -345.0011
v  -115.0000 5.9500 -355.0000
v  -115.0000 0.0000 -355.0000
v  -40.0000 0.0000 -344.9990
v  -40.0000 5.9500 -344.9990
v  -40.0000 5.9500 -355.0000
v  -40.0000 0.0000 -355.0000
# 60 vertices

vn 0.0000 1.0000 -0.0000
vn 0.0000 0.0000 -1.0000
vn -0.0000 0.0000 1.0000
vn -1.0000 0.0000 -0.0000
vn 1.0000 0.0000 0.0000
vn -0.0000 0.6897 0.7241
vn -0.7071 0.7071 -0.0000
vn 0.0000 0.6897 -0.7241
vn 0.7071 0.7071 0.0000
vn -0.6000 0.8000 -0.0000
vn 0.6000 0.8000 0.0000
vn -0.0004 0.6895 -0.7243
vn -0.0003 0.6897 -0.7241
vn 0.0000 0.6897 0.7241
vn 0.0004 0.6897 -0.7241
vn 0.0003 0.6895 -0.7242
vn -0.0004 0.0000 -1.0000
vn 0.0000 0.0000 1.0000
vn 0.0004 0.0000 -1.0000
# 19 vertex normals

vt 0.0206 0.9864 0.0000
vt 0.0514 0.9521 0.0000
vt 0.6754 0.9521 0.0000
vt 0.7063 0.9864 0.0000
vt 0.5236 0.4559 0.0000
vt 0.5236 0.4788 0.0000
vt 0.2164 0.4788 0.0000
vt 0.2164 0.4559 0.0000
vt 0.8966 0.9721 0.0000
vt 0.8523 0.9721 0.0000
vt 0.8523 0.5810 0.0000
vt 0.8966 0.5810 0.0000
vt 0.0521 0.5922 0.0000
vt 0.0192 0.5557 0.0000
vt 0.3296 0.5557 0.0000
vt 0.3296 0.5922 0.0000
vt 0.6724 0.5906 0.0000
vt 0.4123 0.5906 0.0000
vt 0.4123 0.5563 0.0000
vt 0.7033 0.5563 0.0000
vt 0.6227 0.5288 0.0000
vt 0.4288 0.5288 0.0000
vt 0.4288 0.4959 0.0000
vt 0.6227 0.4959 0.0000
vt 0.9568 0.0741 0.0000
vt 0.9878 0.0741 0.0000
vt 0.9878 0.1110 0.0000
vt 0.9568 0.1110 0.0000
vt 0.7788 0.5977 0.0000
vt 0.7788 0.3742 0.0000
vt 0.8231 0.3742 0.0000
vt 0.8231 0.5977 0.0000
vt 0.7782 0.9746 0.0000
vt 0.7782 0.7512 0.0000
vt 0.8225 0.7512 0.0000
vt 0.8225 0.9746 0.0000
vt 0.9559 0.0254 0.0000
vt 0.9869 0.0254 0.0000
vt 0.9869 0.0624 0.0000
vt 0.9559 0.0624 0.0000
vt 0.0947 0.5334 0.0000
vt 0.0947 0.5272 0.0000
vt 0.3001 0.5272 0.0000
vt 0.2940 0.5334 0.0000
vt 0.6679 0.4015 0.0000
vt 0.0721 0.4015 0.0000
vt 0.0721 0.0291 0.0000
vt 0.6679 0.0291 0.0000
vt 0.5236 0.4828 0.0000
vt 0.2164 0.4828 0.0000
vt 0.0634 0.9436 0.0000
vt 0.6634 0.9436 0.0000
vt 0.6227 0.5346 0.0000
vt 0.4346 0.5346 0.0000
vt 0.4033 0.5992 0.0000
vt 0.4033 0.5563 0.0000
vt 0.6604 0.5992 0.0000
vt 0.3392 0.6014 0.0000
vt 0.0649 0.6014 0.0000
vt 0.3392 0.5557 0.0000
vt 0.0947 0.4923 0.0000
vt 0.3001 0.4923 0.0000
vt 0.3037 0.4168 0.0000
vt 0.3037 0.4443 0.0000
vt 0.2065 0.4443 0.0000
vt 0.2065 0.4168 0.0000
vt 0.0733 0.4443 0.0000
vt 0.0733 0.4168 0.0000
vt 0.1705 0.4168 0.0000
vt 0.1705 0.4443 0.0000
vt 0.0192 0.7294 0.0000
vt 0.0521 0.7294 0.0000
vt 0.0206 0.8236 0.0000
vt 0.0514 0.8236 0.0000
vt 0.9411 0.3732 0.0000
vt 0.9854 0.3732 0.0000
vt 0.9854 0.4989 0.0000
vt 0.9411 0.4989 0.0000
vt 0.9854 0.6711 0.0000
vt 0.9411 0.6711 0.0000
vt 0.9411 0.5455 0.0000
vt 0.9854 0.5455 0.0000
vt 0.7063 0.8236 0.0000
vt 0.6754 0.8236 0.0000
vt 0.7033 0.7192 0.0000
vt 0.6724 0.7192 0.0000
vt 0.9426 0.6832 0.0000
vt 0.9870 0.6832 0.0000
vt 0.9870 0.8088 0.0000
vt 0.9426 0.8088 0.0000
vt 0.9870 0.9811 0.0000
vt 0.9426 0.9811 0.0000
vt 0.9426 0.8554 0.0000
vt 0.9870 0.8554 0.0000
vt 0.4279 0.4387 0.0000
vt 0.4279 0.4130 0.0000
vt 0.5190 0.4130 0.0000
vt 0.5190 0.4387 0.0000
vt 0.6439 0.4130 0.0000
vt 0.6439 0.4387 0.0000
vt 0.5528 0.4387 0.0000
vt 0.5528 0.4130 0.0000
vt 0.0733 0.4491 0.0000
vt 0.1705 0.4491 0.0000
vt 0.3037 0.4491 0.0000
vt 0.2065 0.4491 0.0000
vt 0.6634 0.8150 0.0000
vt 0.6604 0.7278 0.0000
vt 0.0649 0.7385 0.0000
vt 0.0634 0.8150 0.0000
vt 0.4279 0.4432 0.0000
vt 0.5190 0.4432 0.0000
vt 0.6439 0.4432 0.0000
vt 0.5528 0.4432 0.0000
vt 0.0192 0.7385 0.0000
vt 0.0206 0.8150 0.0000
vt 0.7063 0.8150 0.0000
vt 0.7033 0.7277 0.0000
vt 0.9437 0.1129 0.0000
vt 0.9081 0.1129 0.0000
vt 0.9081 0.0705 0.0000
vt 0.9437 0.0705 0.0000
vt 0.9429 0.0641 0.0000
vt 0.9074 0.0641 0.0000
vt 0.9074 0.0218 0.0000
vt 0.9429 0.0218 0.0000
vt 0.8926 0.1136 0.0000
vt 0.8571 0.1136 0.0000
vt 0.8571 0.0713 0.0000
vt 0.8926 0.0713 0.0000
vt 0.8919 0.0648 0.0000
vt 0.8563 0.0648 0.0000
vt 0.8563 0.0225 0.0000
vt 0.8919 0.0225 0.0000
# 134 texture coords

g room_1x7
usemtl Room
s 1
f 1/1/1 2/2/1 3/3/1 
f 3/3/1 4/4/1 1/1/1 
s off
f 5/5/2 6/6/2 7/7/2 
f 7/7/2 8/8/2 5/5/2 
f 9/9/3 10/10/3 11/11/3 
f 11/11/3 12/12/3 9/9/3 
s 1
f 13/13/1 14/14/1 15/15/1 
f 15/15/1 16/16/1 13/13/1 
f 17/17/1 18/18/1 19/19/1 
f 19/19/1 20/20/1 17/17/1 
s off
f 21/21/3 22/22/3 23/23/3 
f 23/23/3 24/24/3 21/21/3 
f 22/25/4 25/26/4 26/27/4 
f 26/27/4 23/28/4 22/25/4 
f 25/29/2 27/30/2 28/31/2 
f 28/31/2 26/32/2 25/29/2 
f 29/33/2 30/34/2 31/35/2 
f 31/35/2 32/36/2 29/33/2 
f 30/37/5 33/38/5 34/39/5 
f 34/39/5 31/40/5 30/37/5 
f 14/41/3 35/42/3 33/43/3 
f 33/43/3 15/44/3 14/41/3 
s 1
f 8/45/1 5/46/1 36/47/1 
f 24/48/1 8/45/1 36/47/1 
f 24/48/4 24/48/1 36/47/1 
f 24/48/4 36/47/1 36/47/4 
s off
f 1/49/2 4/50/2 7/7/2 
f 7/7/2 6/6/2 1/49/2 
f 3/3/6 2/2/6 11/51/6 
f 11/51/6 10/52/6 3/3/6 
f 20/53/3 19/54/3 22/22/3 
f 22/22/3 21/21/3 20/53/3 
f 19/19/7 18/18/7 25/55/7 
f 25/55/7 22/56/7 19/19/7 
f 18/18/8 17/17/8 27/57/8 
f 27/57/8 25/55/8 18/18/8 
f 13/13/8 16/16/8 30/58/8 
f 30/58/8 29/59/8 13/13/8 
f 16/16/9 15/15/9 33/60/9 
f 33/60/9 30/58/9 16/16/9 
f 36/61/3 34/62/3 33/43/3 
f 33/43/3 35/42/3 36/61/3 
f 36/63/4 35/64/4 37/65/4 
f 37/65/4 38/66/4 36/63/4 
f 6/67/4 5/68/4 39/69/4 
f 39/69/4 40/70/4 6/67/4 
s 1
f 41/71/1 14/14/1 13/13/1 
f 13/13/1 42/72/1 41/71/1 
f 2/2/1 1/1/1 43/73/1 
f 43/73/1 44/74/1 2/2/1 
s off
f 10/75/4 9/76/4 45/77/4 
f 45/77/4 46/78/4 10/75/4 
f 28/79/4 27/80/4 47/81/4 
f 47/81/4 48/82/4 28/79/4 
s 1
f 49/83/1 4/4/1 3/3/1 
f 3/3/1 50/84/1 49/83/1 
f 17/17/1 20/20/1 51/85/1 
f 51/85/1 52/86/1 17/17/1 
s off
f 29/87/5 32/88/5 53/89/5 
f 53/89/5 54/90/5 29/87/5 
f 12/91/5 11/92/5 55/93/5 
f 55/93/5 56/94/5 12/91/5 
f 21/95/5 24/96/5 57/97/5 
f 57/97/5 58/98/5 21/95/5 
f 8/99/5 7/100/5 59/101/5 
f 59/101/5 60/102/5 8/99/5 
f 1/103/4 6/67/4 40/70/4 
f 40/70/4 43/104/4 1/103/4 
f 35/64/4 14/105/4 41/106/4 
f 41/106/4 37/65/4 35/64/4 
f 50/84/10 3/3/10 10/52/10 
f 10/52/10 46/107/10 50/84/10 
f 27/57/10 17/17/10 52/86/10 
f 52/86/10 47/108/10 27/57/10 
f 42/72/11 13/13/11 29/59/11 
f 29/59/11 54/109/11 42/72/11 
f 11/51/11 2/2/11 44/74/11 
f 44/74/11 55/110/11 11/51/11 
f 20/111/5 21/95/5 58/98/5 
f 58/98/5 51/112/5 20/111/5 
f 7/100/5 4/113/5 49/114/5 
f 49/114/5 59/101/5 7/100/5 
f 41/71/12 42/72/12 54/109/12 
f 54/109/13 37/115/13 41/71/13 
f 44/74/6 43/73/6 40/116/6 
f 40/116/6 55/110/6 44/74/6 
f 49/83/14 50/84/14 46/107/14 
f 46/107/14 59/117/14 49/83/14 
f 52/86/15 51/85/15 58/118/15 
f 58/118/16 47/108/16 52/86/16 
f 37/119/17 54/120/17 53/121/17 
f 53/121/17 38/122/17 37/119/17 
f 55/123/3 40/124/3 39/125/3 
f 39/125/3 56/126/3 55/123/3 
f 59/127/18 46/128/18 45/129/18 
f 45/129/18 60/130/18 59/127/18 
f 47/131/19 58/132/19 57/133/19 
f 57/133/19 48/134/19 47/131/19 
# 98 faces

#
# object collision
#

v  -75.0000 7.0000 -325.0000
v  -40.0000 7.0000 -325.0000
v  -40.0000 7.0000 -330.0000
v  -75.0000 7.0000 -330.0000
v  -75.0000 0.0000 -330.0000
v  -75.0000 0.0000 -325.0000
v  -40.0000 0.0000 -325.0000
v  -40.0000 0.0000 -330.0000
# 8 vertices

vn 0.0000 1.0000 -0.0000
vn -1.0000 0.0000 -0.0000
vn 0.0000 0.0000 1.0000
vn 1.0000 0.0000 -0.0000
vn 0.0000 0.0000 -1.0000
# 5 vertex normals

vt 0.0000 0.0000 0.0000
vt 1.0000 0.0000 0.0000
vt 1.0000 1.0000 0.0000
vt 0.0000 1.0000 0.0000
# 4 texture coords

g collision
usemtl Room
s 1
f 61/135/20 62/136/20 63/137/20 
f 63/137/20 64/138/20 61/135/20 
s off
f 65/138/21 66/135/21 61/135/21 
f 61/135/21 64/138/21 65/138/21 
f 66/135/22 67/136/22 62/136/22 
f 62/136/22 61/135/22 66/135/22 
f 67/136/23 68/137/23 63/137/23 
f 63/137/23 62/136/23 67/136/23 
f 68/137/24 65/138/24 64/138/24 
f 64/138/24 63/137/24 68/137/24 
# 10 faces

#
# object collision
#

v  -120.0000 7.0000 -355.0000
v  -115.0000 7.0000 -355.0000
v  -115.0000 7.0000 -375.0000
v  -120.0000 7.0000 -375.0000
v  -120.0000 -0.0000 -375.0000
v  -120.0000 -0.0000 -355.0000
v  -115.0000 -0.0000 -355.0000
v  -115.0000 -0.0000 -375.0000
# 8 vertices

vn 0.0000 1.0000 -0.0000
vn -1.0000 0.0000 -0.0000
vn 0.0000 0.0000 1.0000
vn 1.0000 0.0000 -0.0000
vn 0.0000 0.0000 -1.0000
# 5 vertex normals

vt 0.0000 0.0000 0.0000
vt 1.0000 0.0000 0.0000
vt 1.0000 1.0000 0.0000
vt 0.0000 1.0000 0.0000
# 4 texture coords

g collision
usemtl Room
s 1
f 69/139/25 70/140/25 71/141/25 
f 71/141/25 72/142/25 69/139/25 
s off
f 73/142/26 74/139/26 69/139/26 
f 69/139/26 72/142/26 73/142/26 
f 74/139/27 75/140/27 70/140/27 
f 70/140/27 69/139/27 74/139/27 
f 75/140/28 76/141/28 71/141/28 
f 71/141/28 70/140/28 75/140/28 
f 76/141/29 73/142/29 72/142/29 
f 72/142/29 71/141/29 76/141/29 
# 10 faces

#
# object collision
#

v  -120.0000 7.0000 -325.0000
v  -115.0000 7.0000 -325.0000
v  -115.0000 7.0000 -345.0000
v  -120.0000 7.0000 -345.0000
v  -120.0000 -0.0000 -345.0000
v  -120.0000 -0.0000 -325.0000
v  -115.0000 -0.0000 -325.0000
v  -115.0000 -0.0000 -345.0000
# 8 vertices

vn 0.0000 1.0000 -0.0000
vn -1.0000 0.0000 -0.0000
vn 0.0000 0.0000 1.0000
vn 1.0000 0.0000 -0.0000
vn 0.0000 0.0000 -1.0000
# 5 vertex normals

vt 0.0000 0.0000 0.0000
vt 1.0000 0.0000 0.0000
vt 1.0000 1.0000 0.0000
vt 0.0000 1.0000 0.0000
# 4 texture coords

g collision
usemtl Room
s 1
f 77/143/30 78/144/30 79/145/30 
f 79/145/30 80/146/30 77/143/30 
s off
f 81/146/31 82/143/31 77/143/31 
f 77/143/31 80/146/31 81/146/31 
f 82/143/32 83/144/32 78/144/32 
f 78/144/32 77/143/32 82/143/32 
f 83/144/33 84/145/33 79/145/33 
f 79/145/33 78/144/33 83/144/33 
f 84/145/34 81/146/34 80/146/34 
f 80/146/34 79/145/34 84/145/34 
# 10 faces

#
# object collision
#

v  -120.0000 7.0000 -325.0000
v  -85.0000 7.0000 -325.0000
v  -85.0000 7.0000 -330.0000
v  -120.0000 7.0000 -330.0000
v  -120.0000 0.0000 -330.0000
v  -120.0000 0.0000 -325.0000
v  -85.0000 0.0000 -325.0000
v  -85.0000 0.0000 -330.0000
# 8 vertices

vn 0.0000 1.0000 -0.0000
vn -1.0000 0.0000 -0.0000
vn 0.0000 0.0000 1.0000
vn 1.0000 0.0000 -0.0000
vn 0.0000 0.0000 -1.0000
# 5 vertex normals

vt 0.0000 0.0000 0.0000
vt 1.0000 0.0000 0.0000
vt 1.0000 1.0000 0.0000
vt 0.0000 1.0000 0.0000
# 4 texture coords

g collision
usemtl Room
s 1
f 85/147/35 86/148/35 87/149/35 
f 87/149/35 88/150/35 85/147/35 
s off
f 89/150/36 90/147/36 85/147/36 
f 85/147/36 88/150/36 89/150/36 
f 90/147/37 91/148/37 86/148/37 
f 86/148/37 85/147/37 90/147/37 
f 91/148/38 92/149/38 87/149/38 
f 87/149/38 86/148/38 91/148/38 
f 92/149/39 89/150/39 88/150/39 
f 88/150/39 87/149/39 92/149/39 
# 10 faces

#
# object collision
#

v  -120.0000 7.0000 -370.0000
v  -40.0000 7.0000 -370.0000
v  -40.0000 7.0000 -375.0000
v  -120.0000 7.0000 -375.0000
v  -120.0000 0.0000 -375.0000
v  -120.0000 0.0000 -370.0000
v  -40.0000 0.0000 -370.0000
v  -40.0000 0.0000 -375.0000
# 8 vertices

vn 0.0000 1.0000 -0.0000
vn -1.0000 0.0000 -0.0000
vn 0.0000 0.0000 1.0000
vn 1.0000 0.0000 -0.0000
vn -0.0000 0.0000 -1.0000
# 5 vertex normals

vt 0.0000 0.0000 0.0000
vt 1.0000 0.0000 0.0000
vt 1.0000 1.0000 0.0000
vt 0.0000 1.0000 0.0000
# 4 texture coords

g collision
usemtl Room
s 1
f 93/151/40 94/152/40 95/153/40 
f 95/153/40 96/154/40 93/151/40 
s off
f 97/154/41 98/151/41 93/151/41 
f 93/151/41 96/154/41 97/154/41 
f 98/151/42 99/152/42 94/152/42 
f 94/152/42 93/151/42 98/151/42 
f 99/152/43 100/153/43 95/153/43 
f 95/153/43 94/152/43 99/152/43 
f 100/153/44 97/154/44 96/154/44 
f 96/154/44 95/153/44 100/153/44 
# 10 faces

#
# object collision
#

v  -45.0000 7.0000 -325.0000
v  -40.0000 7.0000 -325.0000
v  -40.0000 7.0000 -345.0000
v  -45.0000 7.0000 -345.0000
v  -45.0000 0.0000 -345.0000
v  -45.0000 0.0000 -325.0000
v  -40.0000 0.0000 -325.0000
v  -40.0000 0.0000 -345.0000
# 8 vertices

vn 0.0000 1.0000 -0.0000
vn -1.0000 0.0000 -0.0000
vn 0.0000 0.0000 1.0000
vn 1.0000 0.0000 -0.0000
vn 0.0000 0.0000 -1.0000
# 5 vertex normals

vt 0.0000 0.0000 0.0000
vt 1.0000 0.0000 0.0000
vt 1.0000 1.0000 0.0000
vt 0.0000 1.0000 0.0000
# 4 texture coords

g collision
usemtl Room
s 1
f 101/155/45 102/156/45 103/157/45 
f 103/157/45 104/158/45 101/155/45 
s off
f 105/158/46 106/155/46 101/155/46 
f 101/155/46 104/158/46 105/158/46 
f 106/155/47 107/156/47 102/156/47 
f 102/156/47 101/155/47 106/155/47 
f 107/156/48 108/157/48 103/157/48 
f 103/157/48 102/156/48 107/156/48 
f 108/157/49 105/158/49 104/158/49 
f 104/158/49 103/157/49 108/157/49 
# 10 faces

#
# object collision
#

v  -45.0000 7.0000 -355.0000
v  -40.0000 7.0000 -355.0000
v  -40.0000 7.0000 -375.0000
v  -45.0000 7.0000 -375.0000
v  -45.0000 0.0000 -375.0000
v  -45.0000 0.0000 -355.0000
v  -40.0000 0.0000 -355.0000
v  -40.0000 0.0000 -375.0000
# 8 vertices

vn 0.0000 1.0000 -0.0000
vn -1.0000 0.0000 -0.0000
vn 0.0000 0.0000 1.0000
vn 1.0000 0.0000 -0.0000
vn 0.0000 0.0000 -1.0000
# 5 vertex normals

vt 0.0000 0.0000 0.0000
vt 1.0000 0.0000 0.0000
vt 1.0000 1.0000 0.0000
vt 0.0000 1.0000 0.0000
# 4 texture coords

g collision
usemtl Room
s 1
f 109/159/50 110/160/50 111/161/50 
f 111/161/50 112/162/50 109/159/50 
s off
f 113/162/51 114/159/51 109/159/51 
f 109/159/51 112/162/51 113/162/51 
f 114/159/52 115/160/52 110/160/52 
f 110/160/52 109/159/52 114/159/52 
f 115/160/53 116/161/53 111/161/53 
f 111/161/53 110/160/53 115/160/53 
f 116/161/54 113/162/54 112/162/54 
f 112/162/54 111/161/54 116/161/54 
# 10 faces

