# 3ds Max Wavefront OBJ Exporter v0.97b - (c)2007 guruware
# File Created: 08.04.2019 12:36:43

#
# object box
#

v  -7.4817 0.0000 7.4817
v  7.4817 0.0000 -7.4817
v  7.4817 0.0000 7.4817
v  -7.4817 14.9634 7.4817
v  7.4817 14.9634 -7.4817
v  -7.4817 14.9634 -7.4817
v  7.4817 14.9634 7.4817
v  -7.4817 0.0000 -7.4817
# 8 vertices

vn 0.0000 -1.0000 -0.0000
vn 0.0000 1.0000 -0.0000
vn 0.0000 0.0000 1.0000
vn 1.0000 0.0000 -0.0000
vn 0.0000 0.0000 -1.0000
vn -1.0000 0.0000 -0.0000
# 6 vertex normals

vt 1.0000 0.0000 0.0000
vt 0.0000 1.0000 0.0000
vt 0.0000 0.0000 0.0000
vt 1.0000 1.0000 0.0000
# 4 texture coords

g box
s 2
f 1/1/1 2/2/1 3/3/1 
s 4
f 4/3/2 5/4/2 6/2/2 
s 8
f 1/3/3 7/4/3 4/2/3 
s 16
f 3/3/4 5/4/4 7/2/4 
s 32
f 2/3/5 6/4/5 5/2/5 
s 64
f 8/3/6 4/4/6 6/2/6 
s 2
f 1/1/1 8/4/1 2/2/1 
s 4
f 4/3/2 7/1/2 5/4/2 
s 8
f 1/3/3 3/1/3 7/4/3 
s 16
f 3/3/4 2/1/4 5/4/4 
s 32
f 2/3/5 8/1/5 6/4/5 
s 64
f 8/3/6 1/1/6 4/4/6 
# 0 polygons - 12 triangles

#
# object collision
#

v  -7.4817 0.0000 7.4817
v  7.4817 0.0000 -7.4817
v  7.4817 0.0000 7.4817
v  -7.4817 14.9634 7.4817
v  7.4817 14.9634 -7.4817
v  -7.4817 14.9634 -7.4817
v  7.4817 14.9634 7.4817
v  -7.4817 0.0000 -7.4817
# 8 vertices

vn 0.0000 -1.0000 -0.0000
vn 0.0000 1.0000 -0.0000
vn 0.0000 0.0000 1.0000
vn 1.0000 0.0000 -0.0000
vn 0.0000 0.0000 -1.0000
vn -1.0000 0.0000 -0.0000
# 6 vertex normals

vt 1.0000 0.0000 0.0000
vt 0.0000 1.0000 0.0000
vt 0.0000 0.0000 0.0000
vt 1.0000 1.0000 0.0000
# 4 texture coords

g collision
s 2
f 9/5/7 10/6/7 11/7/7 
s 4
f 12/7/8 13/8/8 14/6/8 
s 8
f 9/7/9 15/8/9 12/6/9 
s 16
f 11/7/10 13/8/10 15/6/10 
s 32
f 10/7/11 14/8/11 13/6/11 
s 64
f 16/7/12 12/8/12 14/6/12 
s 2
f 9/5/7 16/8/7 10/6/7 
s 4
f 12/7/8 15/5/8 13/8/8 
s 8
f 9/7/9 11/5/9 15/8/9 
s 16
f 11/7/10 10/5/10 13/8/10 
s 32
f 10/7/11 16/5/11 14/8/11 
s 64
f 16/7/12 9/5/12 12/8/12 
# 0 polygons - 12 triangles

