# 3ds Max Wavefront OBJ Exporter v0.97b - (c)2007 guruware
# File Created: 10.04.2019 12:53:15

mtllib collisionroomtest.mtl

#
# object room
#

v  -3.6509 0.0317 42.3778
v  -20.6384 0.0317 37.2907
v  -3.6644 0.0317 37.2907
v  3.6687 0.0317 37.2907
v  20.6442 0.0317 37.2907
v  3.6640 0.0317 42.3778
v  -3.6509 6.3634 42.3778
v  -30.1014 6.3634 42.3778
v  30.1072 0.0317 42.3778
v  3.6640 6.3634 42.3778
v  -3.6644 6.3634 37.2907
v  -20.6384 6.3634 37.2907
v  20.6442 6.3634 37.2907
v  3.6687 6.3634 37.2907
v  -3.6644 0.2780 37.0512
v  -20.3988 0.2780 37.0512
v  -3.6644 0.5499 37.0512
v  3.6687 0.5499 37.0512
v  20.4046 0.5499 37.0512
v  3.6687 0.2780 37.0512
v  -3.6522 6.3634 -42.5649
v  -20.6384 6.3634 -37.4778
v  -3.6641 6.3634 -37.4778
v  3.6687 6.3634 -37.4778
v  20.6442 6.3634 -37.4778
v  3.6640 6.3634 -42.5649
v  -3.6522 0.0317 -42.5649
v  -30.1014 0.0317 -42.5649
v  30.1072 6.3634 -42.5649
v  3.6640 0.0317 -42.5649
v  -3.6641 0.0317 -37.4778
v  -20.6384 0.0317 -37.4778
v  20.6442 0.0317 -37.4778
v  3.6687 0.0317 -37.4778
v  -3.6641 0.5499 -37.2382
v  -20.3988 0.5499 -37.2382
v  -3.6641 0.2780 -37.2382
v  3.6687 0.2780 -37.2382
v  20.4046 0.2780 -37.2382
v  3.6687 0.5499 -37.2382
v  -3.6644 0.2248 37.2907
v  3.6687 0.2248 37.2907
v  20.6442 0.2248 37.2907
v  3.6687 5.6676 37.0028
v  20.3563 5.6676 37.0028
v  3.6687 4.8393 37.0028
v  -3.6644 4.8393 37.0028
v  -20.3505 4.8393 37.0028
v  -3.6644 5.6676 37.0028
v  -3.6641 5.6676 -37.1898
v  -20.3505 5.6676 -37.1898
v  -3.6641 4.8393 -37.1898
v  3.6687 4.8393 -37.1898
v  20.3563 4.8393 -37.1898
v  3.6687 5.6676 -37.1898
v  3.6687 0.2248 -37.4778
v  -3.6641 0.2248 -37.4778
v  -20.6384 0.2248 -37.4778
v  -3.6641 0.6030 -37.4778
v  20.4046 0.5499 -37.2382
v  3.6687 0.6030 -37.4778
v  3.6687 0.6030 37.2907
v  -20.3988 0.5499 37.0512
v  -3.6644 0.6030 37.2907
v  20.4046 0.2780 37.0512
v  -20.3988 0.2780 -37.2382
v  3.6687 5.8597 37.2907
v  -3.6644 5.8597 37.2907
v  -20.6384 5.8597 37.2907
v  -20.6384 0.6030 37.2907
v  -3.6644 4.6472 37.2907
v  3.6687 4.6472 37.2907
v  20.6442 4.6472 37.2907
v  -3.6641 5.8597 -37.4778
v  3.6687 5.8597 -37.4778
v  20.6442 5.8597 -37.4778
v  20.6442 0.6030 -37.4778
v  3.6687 4.6472 -37.4778
v  -3.6641 4.6472 -37.4778
v  -20.6384 4.6472 -37.4778
v  20.3563 5.6676 -37.1898
v  -20.3505 5.6676 37.0028
v  20.3563 4.8393 37.0028
v  -20.3505 4.8393 -37.1898
v  20.6442 0.0317 -3.8712
v  30.1072 0.0317 -3.8657
v  30.1072 0.0317 3.6803
v  20.6442 0.0317 3.6836
v  30.1072 6.3634 -3.8657
v  20.6442 6.3634 -3.8712
v  20.6442 6.3634 3.6836
v  30.1072 6.3634 3.6803
v  30.1072 0.0317 -42.5649
v  30.1072 6.3634 42.3778
v  20.4046 0.5499 -3.8712
v  20.4046 0.2780 -3.8712
v  20.4046 0.2780 3.6836
v  20.4046 0.5499 3.6836
v  -30.1014 0.0317 -3.8442
v  -20.6384 0.0317 -3.8755
v  -20.6384 0.0317 3.6860
v  -30.1014 0.0317 3.6680
v  -20.6384 6.3634 -3.8755
v  -30.1014 6.3634 -3.8442
v  -30.1014 6.3634 3.6680
v  -20.6384 6.3634 3.6860
v  -20.3988 0.5499 3.6860
v  -20.3988 0.2780 3.6860
v  -20.3988 0.2780 -3.8755
v  -20.3988 0.5499 -3.8755
v  -30.1014 0.0317 42.3778
v  -30.1014 6.3634 -42.5649
v  20.3563 5.6676 -3.8712
v  20.3563 4.8393 -3.8712
v  20.3563 4.8393 3.6836
v  20.3563 5.6676 3.6836
v  20.6442 0.2248 3.6836
v  20.6442 0.2248 -3.8712
v  20.6442 0.2248 -37.4778
v  -20.3505 5.6676 3.6860
v  -20.3505 4.8393 3.6860
v  -20.3505 4.8393 -3.8755
v  -20.3505 5.6676 -3.8755
v  -20.6384 0.2248 -3.8755
v  -20.6384 0.2248 3.6860
v  -20.6384 0.2248 37.2907
v  20.6442 0.6030 -3.8712
v  20.6442 0.6030 3.6836
v  -20.6384 0.6030 3.6860
v  -20.6384 0.6030 -3.8755
v  20.6442 5.8597 -3.8712
v  20.6442 5.8597 3.6836
v  20.6442 5.8597 37.2907
v  20.6442 0.6030 37.2907
v  20.6442 4.6472 3.6836
v  20.6442 4.6472 -3.8712
v  20.6442 4.6472 -37.4778
v  -20.6384 5.8597 3.6860
v  -20.6384 5.8597 -3.8755
v  -20.6384 5.8597 -37.4778
v  -20.6384 0.6030 -37.4778
v  -20.6384 4.6472 -3.8755
v  -20.6384 4.6472 3.6860
v  -20.6384 4.6472 37.2907
# 144 vertices

vn 0.0000 -1.0000 -0.0000
vn 0.0000 -0.0000 1.0000
vn -0.0000 1.0000 0.0000
vn 0.0000 1.0000 0.0000
vn 0.0000 0.0000 -1.0000
vn -0.0000 1.0000 -0.0000
vn 0.0000 1.0000 -0.0000
vn -0.0000 -0.0000 1.0000
vn -0.0000 0.0000 -1.0000
vn 0.0000 0.9437 0.3308
vn -0.0000 0.9437 0.3308
vn 0.0000 0.9437 -0.3308
vn -0.0000 0.9437 -0.3308
vn 0.0000 -0.9437 -0.3308
vn -0.0000 -0.9437 -0.3308
vn -0.0000 -0.9437 0.3308
vn 0.0000 -0.9437 0.3308
vn -0.0000 0.6884 0.7254
vn 0.0000 0.6884 0.7254
vn -0.0000 0.6884 -0.7254
vn 0.0000 0.6884 -0.7254
vn 0.0000 -0.6884 -0.7254
vn -0.0000 -0.6884 -0.7254
vn -0.0000 -0.6884 0.7254
vn 0.0000 -0.6884 0.7254
vn 1.0000 0.0000 -0.0000
vn 1.0000 -0.0000 0.0000
vn -1.0000 0.0000 -0.0000
vn -1.0000 -0.0000 0.0000
vn -0.3308 0.9437 -0.0000
vn -0.3308 0.9437 0.0000
vn 0.3308 0.9437 -0.0000
vn 0.3308 0.9437 0.0000
vn -0.3308 -0.9437 -0.0000
vn -0.3308 -0.9437 0.0000
vn 0.3308 -0.9437 0.0000
vn 0.3308 -0.9437 -0.0000
vn -0.7254 0.6884 -0.0000
vn -0.7254 0.6884 0.0000
vn 0.7254 0.6884 0.0000
vn 0.7254 0.6884 -0.0000
vn -0.7254 -0.6884 -0.0000
vn -0.7254 -0.6884 0.0000
vn 0.7254 -0.6884 -0.0000
vn -0.0003 0.0000 -1.0000
vn -0.0006 -0.0000 1.0000
vn 1.0000 0.0000 -0.0026
vn -1.0000 0.0000 -0.0009
vn 0.0033 -0.0000 1.0000
vn 0.0019 0.0000 -1.0000
vn -1.0000 -0.0000 0.0009
vn 1.0000 -0.0000 0.0023
vn 0.7254 -0.6884 0.0000
# 53 vertex normals

vt 1.0000 0.0000 0.0000
vt 0.8608 0.0000 0.0000
vt 1.0000 1.0000 0.0000
vt 0.8608 1.0000 0.0000
vt 0.8608 0.0305 0.0000
vt 0.8608 0.0902 0.0000
vt 0.0000 1.0000 0.0000
vt 0.1392 1.0000 0.0000
vt 0.0000 0.0000 0.0000
vt 0.1392 0.0000 0.0000
vt 0.1392 0.0902 0.0000
vt 0.1392 0.0305 0.0000
vt 0.8608 0.9204 0.0000
vt 0.8608 0.7289 0.0000
vt 0.1392 0.9204 0.0000
vt 0.1392 0.7289 0.0000
vt 1.0000 0.6203 0.0000
vt 1.0000 0.8608 0.0000
vt 0.6667 0.7131 0.0000
vt 0.3333 0.4261 0.0000
vt 1.0000 0.1392 0.0000
vt 1.0000 0.3797 0.0000
vt 0.6667 0.5739 0.0000
vt 0.0000 0.8608 0.0000
vt 0.0000 0.6203 0.0000
vt 0.0000 0.3797 0.0000
vt 0.0000 0.1392 0.0000
vt 0.3333 0.2869 0.0000
vt 0.7131 0.0000 0.0000
vt 0.5739 1.0000 0.0000
vt 0.2869 1.0000 0.0000
vt 0.4261 0.0000 0.0000
vt 0.3797 0.0902 0.0000
vt 0.3797 0.0305 0.0000
vt 0.6203 0.0305 0.0000
vt 0.6203 0.0902 0.0000
vt 0.3797 0.9204 0.0000
vt 0.3797 0.7289 0.0000
vt 0.6203 0.7289 0.0000
vt 0.6203 0.9204 0.0000
vt 0.6203 0.0000 0.0000
vt 0.3797 0.0000 0.0000
vt 0.3797 1.0000 0.0000
vt 0.6203 1.0000 0.0000
# 44 texture coords

g room
usemtl 04___Default
s off
f 1/1/1 2/2/1 3/2/1 
f 4/2/1 5/2/1 6/1/1 
f 7/3/2 8/3/2 1/1/2 
f 6/1/2 9/1/2 10/3/2 
f 11/4/3 12/4/3 7/3/3 
f 10/3/4 13/4/4 14/4/4 
f 15/5/5 16/5/5 17/6/5 
f 18/6/5 19/6/5 20/5/5 
f 21/7/6 22/8/6 23/8/6 
f 24/8/7 25/8/7 26/7/7 
f 27/9/5 28/9/5 21/7/5 
f 26/7/5 29/7/5 30/9/5 
f 31/10/1 32/10/1 27/9/1 
f 30/9/1 33/10/1 34/10/1 
f 35/11/2 36/11/2 37/12/2 
f 38/12/8 39/12/8 40/11/8 
f 3/2/5 2/2/5 41/5/5 
f 42/5/5 43/5/5 4/2/5 
f 44/13/9 45/13/9 46/14/9 
f 47/14/5 48/14/5 49/13/5 
f 50/15/2 51/15/2 52/16/2 
f 53/16/2 54/16/2 55/15/2 
f 34/10/8 33/10/8 56/12/8 
f 57/12/2 58/12/2 31/10/2 
f 59/11/10 36/11/10 35/11/10 
f 40/11/11 60/11/11 61/11/11 
f 62/6/12 19/6/12 18/6/12 
f 17/6/13 63/6/13 64/6/13 
f 41/5/14 16/5/14 15/5/14 
f 20/5/15 65/5/15 42/5/15 
f 56/12/16 39/12/16 38/12/16 
f 37/12/17 66/12/17 57/12/17 
f 14/4/5 13/4/5 67/13/5 
f 68/13/5 69/13/5 11/4/5 
f 64/6/5 70/6/5 71/14/5 
f 72/14/5 73/14/5 62/6/5 
f 23/8/2 22/8/2 74/15/2 
f 75/15/8 76/15/8 24/8/8 
f 61/11/8 77/11/8 78/16/8 
f 79/16/2 80/16/2 59/11/2 
f 74/15/18 51/15/18 50/15/18 
f 55/15/19 81/15/19 75/15/19 
f 67/13/20 45/13/20 44/13/20 
f 49/13/21 82/13/21 68/13/21 
f 71/14/22 48/14/22 47/14/22 
f 46/14/23 83/14/23 72/14/23 
f 78/16/24 54/16/24 53/16/24 
f 52/16/25 84/16/25 79/16/25 
s 2
f 85/17/1 33/18/1 86/19/1 
f 87/20/1 5/21/1 88/22/1 
s 4
f 89/23/7 25/24/7 90/25/7 
f 91/26/4 13/27/4 92/28/4 
s 16
f 86/29/26 93/1/26 89/30/26 
f 92/31/27 94/7/27 87/32/27 
s 64
f 95/33/28 60/11/28 96/34/28 
f 97/35/28 65/5/28 98/36/28 
s 2
f 99/23/1 32/24/1 100/25/1 
f 101/26/1 2/27/1 102/28/1 
s 4
f 103/17/6 22/18/6 104/19/6 
f 105/20/3 12/21/3 106/22/3 
s 16
f 107/33/26 63/11/26 108/34/26 
f 109/35/27 66/5/27 110/36/27 
s 64
f 102/29/28 111/1/28 105/30/28 
f 104/31/28 112/7/28 99/32/28 
f 113/37/28 81/15/28 114/38/28 
f 115/39/28 83/14/28 116/40/28 
f 88/41/28 5/2/28 117/35/28 
f 118/34/29 119/12/29 85/42/29 
s 16
f 120/37/26 82/15/26 121/38/26 
f 122/39/26 84/14/26 123/40/26 
f 100/41/27 32/2/27 124/35/27 
f 125/34/26 126/12/26 101/42/26 
s off
f 127/33/30 60/11/30 95/33/30 
f 98/36/31 19/6/31 128/36/31 
f 129/33/32 63/11/32 107/33/32 
f 110/36/33 36/6/33 130/36/33 
f 117/35/34 65/5/34 97/35/34 
f 96/34/35 39/12/35 118/34/35 
f 124/35/36 66/5/36 109/35/36 
f 108/34/37 16/12/37 125/34/37 
s 64
f 90/43/29 25/8/29 131/37/29 
f 132/40/28 133/13/28 91/44/28 
f 128/36/28 134/6/28 135/39/28 
f 136/38/29 137/16/29 127/33/29 
s 16
f 106/43/26 12/8/26 138/37/26 
f 139/40/27 140/13/27 103/44/27 
f 130/36/27 141/6/27 142/39/27 
f 143/38/26 144/16/26 129/33/26 
s off
f 131/37/38 81/15/38 113/37/38 
f 116/40/39 45/13/39 132/40/39 
f 138/37/40 82/15/40 120/37/40 
f 123/40/41 51/13/41 139/40/41 
f 135/39/42 83/14/42 115/39/42 
f 114/38/43 54/16/43 136/38/43 
f 142/39/44 84/14/44 122/39/44 
f 121/38/44 48/16/44 143/38/44 
f 95/33/2 118/34/2 127/33/2 
f 113/37/2 136/38/2 131/37/2 
f 97/35/5 128/36/5 117/35/5 
f 115/39/5 132/40/5 135/39/5 
f 15/5/26 64/6/26 41/5/26 
f 18/6/28 42/5/28 62/6/28 
f 44/13/28 72/14/28 67/13/28 
f 47/14/26 68/13/26 71/14/26 
f 107/33/9 125/34/9 129/33/9 
f 109/35/8 130/36/8 124/35/8 
f 120/37/9 143/38/9 138/37/9 
f 122/39/8 139/40/8 142/39/8 
f 35/11/26 57/12/26 59/11/26 
f 38/12/28 61/11/28 56/12/28 
f 50/15/26 79/16/26 74/15/26 
f 53/16/28 75/15/28 78/16/28 
f 88/41/45 117/35/45 87/35/45 
f 118/34/46 85/42/46 86/42/46 
f 90/43/46 131/37/46 89/37/46 
f 132/40/45 91/44/45 92/44/45 
f 128/36/45 92/39/45 87/36/45 
f 136/38/46 86/33/46 89/38/46 
f 127/33/46 118/34/46 86/34/46 
f 131/37/46 136/38/46 89/38/46 
f 117/35/45 128/36/45 87/36/45 
f 135/39/45 132/40/45 92/40/45 
f 3/2/47 41/5/47 1/5/47 
f 42/5/48 4/2/48 6/2/48 
f 14/4/48 67/13/48 10/13/48 
f 68/13/47 11/4/47 7/4/47 
f 64/6/47 7/14/47 1/6/47 
f 72/14/48 6/6/48 10/14/48 
f 41/5/47 64/6/47 1/6/47 
f 62/6/48 42/5/48 6/5/48 
f 67/13/48 72/14/48 10/14/48 
f 71/14/47 68/13/47 7/13/47 
f 100/41/49 124/35/49 99/35/49 
f 125/34/50 101/42/50 102/42/50 
f 106/43/50 138/37/50 105/37/50 
f 139/40/49 103/44/49 104/44/49 
f 130/36/49 104/39/49 99/36/49 
f 143/38/50 102/33/50 105/38/50 
f 129/33/50 125/34/50 102/34/50 
f 124/35/49 130/36/49 99/36/49 
f 138/37/50 143/38/50 105/38/50 
f 142/39/49 139/40/49 104/40/49 
f 34/10/51 56/12/51 30/12/51 
f 57/12/52 31/10/52 27/10/52 
f 23/8/52 74/15/52 21/15/52 
f 75/15/51 24/8/51 26/8/51 
f 61/11/51 26/16/51 30/11/51 
f 79/16/52 27/11/52 21/16/52 
f 59/11/52 57/12/52 27/12/52 
f 56/12/51 61/11/51 30/11/51 
f 74/15/52 79/16/52 21/16/52 
f 78/16/51 75/15/51 26/15/51 
f 1/1/1 111/1/1 2/2/1 
f 5/2/1 9/1/1 6/1/1 
f 8/3/2 111/1/2 1/1/2 
f 9/1/2 94/3/2 10/3/2 
f 12/4/3 8/3/3 7/3/3 
f 10/3/7 94/3/7 13/4/7 
f 16/5/5 63/6/5 17/6/5 
f 19/6/5 65/5/5 20/5/5 
f 21/7/6 112/7/6 22/8/6 
f 25/8/4 29/7/4 26/7/4 
f 28/9/5 112/7/5 21/7/5 
f 29/7/5 93/9/5 30/9/5 
f 32/10/1 28/9/1 27/9/1 
f 30/9/1 93/9/1 33/10/1 
f 36/11/2 66/12/2 37/12/2 
f 39/12/8 60/11/8 40/11/8 
f 2/2/5 126/5/5 41/5/5 
f 43/5/5 5/2/5 4/2/5 
f 45/13/9 83/14/9 46/14/9 
f 48/14/5 82/13/5 49/13/5 
f 51/15/2 84/16/2 52/16/2 
f 54/16/2 81/15/2 55/15/2 
f 33/10/8 119/12/8 56/12/8 
f 58/12/2 32/10/2 31/10/2 
f 59/11/10 141/11/10 36/11/10 
f 60/11/11 77/11/11 61/11/11 
f 62/6/12 134/6/12 19/6/12 
f 63/6/13 70/6/13 64/6/13 
f 41/5/15 126/5/15 16/5/15 
f 65/5/14 43/5/14 42/5/14 
f 56/12/16 119/12/16 39/12/16 
f 66/12/17 58/12/17 57/12/17 
f 13/4/5 133/13/5 67/13/5 
f 69/13/5 12/4/5 11/4/5 
f 70/6/5 144/14/5 71/14/5 
f 73/14/5 134/6/5 62/6/5 
f 22/8/2 140/15/2 74/15/2 
f 76/15/8 25/8/8 24/8/8 
f 77/11/8 137/16/8 78/16/8 
f 80/16/2 141/11/2 59/11/2 
f 74/15/19 140/15/19 51/15/19 
f 81/15/18 76/15/18 75/15/18 
f 67/13/21 133/13/21 45/13/21 
f 82/13/20 69/13/20 68/13/20 
f 71/14/22 144/14/22 48/14/22 
f 83/14/23 73/14/23 72/14/23 
f 78/16/24 137/16/24 54/16/24 
f 84/16/25 80/16/25 79/16/25 
s 2
f 33/18/1 93/3/1 86/19/1 
f 87/20/1 9/27/1 5/21/1 
s 4
f 89/23/7 29/18/7 25/24/7 
f 13/27/4 94/9/4 92/28/4 
s 16
f 93/1/26 29/4/26 89/30/26 
f 94/7/27 9/10/27 87/32/27 
s 64
f 60/11/28 39/12/28 96/34/28 
f 65/5/28 19/6/28 98/36/28 
s 2
f 99/23/1 28/18/1 32/24/1 
f 2/27/1 111/9/1 102/28/1 
s 4
f 22/18/6 112/3/6 104/19/6 
f 105/20/3 8/27/3 12/21/3 
s 16
f 63/11/26 16/12/26 108/34/26 
f 66/5/27 36/6/27 110/36/27 
s 64
f 111/1/28 8/4/28 105/30/28 
f 112/7/28 28/10/28 99/32/28 
f 81/15/28 54/16/28 114/38/28 
f 83/14/28 45/13/28 116/40/28 
f 5/2/28 43/5/28 117/35/28 
f 119/12/29 33/10/29 85/42/29 
s 16
f 82/15/26 48/16/26 121/38/26 
f 84/14/26 51/13/26 123/40/26 
f 32/2/27 58/5/27 124/35/27 
f 126/12/26 2/10/26 101/42/26 
s off
f 127/33/30 77/11/30 60/11/30 
f 19/6/31 134/6/31 128/36/31 
f 129/33/32 70/11/32 63/11/32 
f 36/6/33 141/6/33 130/36/33 
f 117/35/34 43/5/34 65/5/34 
f 39/12/35 119/12/35 118/34/35 
f 124/35/36 58/5/36 66/5/36 
f 16/12/37 126/12/37 125/34/37 
s 64
f 25/8/29 76/15/29 131/37/29 
f 133/13/28 13/4/28 91/44/28 
f 134/6/28 73/14/28 135/39/28 
f 137/16/29 77/11/29 127/33/29 
s 16
f 12/8/26 69/15/26 138/37/26 
f 140/13/27 22/4/27 103/44/27 
f 141/6/27 80/14/27 142/39/27 
f 144/16/26 70/11/26 129/33/26 
s off
f 131/37/38 76/15/38 81/15/38 
f 45/13/39 133/13/39 132/40/39 
f 138/37/41 69/15/41 82/15/41 
f 51/13/40 140/13/40 139/40/40 
f 135/39/42 73/14/42 83/14/42 
f 54/16/43 137/16/43 136/38/43 
f 142/39/53 80/14/53 84/14/53 
f 48/16/44 144/16/44 143/38/44 
f 95/33/2 96/34/2 118/34/2 
f 113/37/2 114/38/2 136/38/2 
f 97/35/5 98/36/5 128/36/5 
f 115/39/5 116/40/5 132/40/5 
f 15/5/26 17/6/26 64/6/26 
f 18/6/28 20/5/28 42/5/28 
f 44/13/28 46/14/28 72/14/28 
f 47/14/26 49/13/26 68/13/26 
f 107/33/9 108/34/9 125/34/9 
f 109/35/8 110/36/8 130/36/8 
f 120/37/9 121/38/9 143/38/9 
f 122/39/8 123/40/8 139/40/8 
f 35/11/26 37/12/26 57/12/26 
f 38/12/28 40/11/28 61/11/28 
f 50/15/26 52/16/26 79/16/26 
f 53/16/28 55/15/28 75/15/28 
f 128/36/45 135/39/45 92/39/45 
f 136/38/46 127/33/46 86/33/46 
f 64/6/47 71/14/47 7/14/47 
f 72/14/48 62/6/48 6/6/48 
f 130/36/49 142/39/49 104/39/49 
f 143/38/50 129/33/50 102/33/50 
f 61/11/51 78/16/51 26/16/51 
f 79/16/52 59/11/52 27/11/52 
# 0 polygons - 272 triangles

#
# object collision
#

v  3.5577 0.0270 -37.3261
v  30.0830 0.0270 -42.7162
v  30.0830 0.0270 -37.3261
v  3.5577 6.4051 -37.3261
v  30.0830 6.4051 -42.7162
v  3.5577 6.4051 -42.7162
v  30.0830 6.4051 -37.3261
v  3.5577 0.0270 -42.7162
# 8 vertices

vn 0.0000 -1.0000 -0.0000
vn 0.0000 1.0000 -0.0000
vn 0.0000 0.0000 1.0000
vn 1.0000 0.0000 0.0000
vn 0.0000 0.0000 -1.0000
vn -1.0000 0.0000 -0.0000
# 6 vertex normals

vt 1.0000 0.0000 0.0000
vt 0.0000 1.0000 0.0000
vt 0.0000 0.0000 0.0000
vt 1.0000 1.0000 0.0000
# 4 texture coords

g collision
usemtl wire_166229229
s 2
f 145/45/54 146/46/54 147/47/54 
s 4
f 148/47/55 149/48/55 150/46/55 
s 8
f 145/47/56 151/48/56 148/46/56 
s 16
f 147/47/57 149/48/57 151/46/57 
s 32
f 146/47/58 150/48/58 149/46/58 
s 64
f 152/47/59 148/48/59 150/46/59 
s 2
f 145/45/54 152/48/54 146/46/54 
s 4
f 148/47/55 151/45/55 149/48/55 
s 8
f 145/47/56 147/45/56 151/48/56 
s 16
f 147/47/57 146/45/57 149/48/57 
s 32
f 146/47/58 152/45/58 150/48/58 
s 64
f 152/47/59 145/45/59 148/48/59 
# 0 polygons - 12 triangles

#
# object collision
#

v  -3.6643 0.0270 -37.4170
v  -29.6821 0.0270 -42.7162
v  -29.6821 0.0270 -37.4170
v  -3.6643 6.4051 -37.4170
v  -29.6821 6.4051 -42.7162
v  -3.6643 6.4051 -42.7162
v  -29.6821 6.4051 -37.4170
v  -3.6643 0.0270 -42.7162
# 8 vertices

vn 0.0000 -1.0000 -0.0000
vn -0.0000 1.0000 -0.0000
vn 0.0000 0.0000 1.0000
vn -1.0000 0.0000 0.0000
vn -0.0000 0.0000 -1.0000
vn 1.0000 0.0000 -0.0000
# 6 vertex normals

vt 1.0000 0.0000 0.0000
vt 0.0000 1.0000 0.0000
vt 0.0000 0.0000 0.0000
vt 1.0000 1.0000 0.0000
# 4 texture coords

g collision
usemtl wire_166229229
s 2
f 155/51/60 154/50/60 153/49/60 
s 4
f 158/50/61 157/52/61 156/51/61 
s 8
f 156/50/62 159/52/62 153/51/62 
s 16
f 159/50/63 157/52/63 155/51/63 
s 32
f 157/50/64 158/52/64 154/51/64 
s 64
f 158/50/65 156/52/65 160/51/65 
s 2
f 154/50/60 160/52/60 153/49/60 
s 4
f 157/52/61 159/49/61 156/51/61 
s 8
f 159/52/62 155/49/62 153/51/62 
s 16
f 157/52/63 154/49/63 155/51/63 
s 32
f 158/52/64 160/49/64 154/51/64 
s 64
f 156/52/65 153/49/65 160/51/65 
# 0 polygons - 12 triangles

#
# object collision
#

v  3.6395 0.0270 37.1520
v  29.9807 0.0270 42.4846
v  29.9807 0.0270 37.1520
v  3.6395 6.4051 37.1520
v  29.9807 6.4051 42.4846
v  3.6395 6.4051 42.4846
v  29.9807 6.4051 37.1520
v  3.6395 0.0270 42.4846
# 8 vertices

vn 0.0000 -1.0000 -0.0000
vn 0.0000 1.0000 0.0000
vn -0.0000 0.0000 -1.0000
vn 1.0000 0.0000 -0.0000
vn 0.0000 0.0000 1.0000
vn -1.0000 0.0000 0.0000
# 6 vertex normals

vt 1.0000 0.0000 0.0000
vt 0.0000 1.0000 0.0000
vt 0.0000 0.0000 0.0000
vt 1.0000 1.0000 0.0000
# 4 texture coords

g collision
usemtl wire_166229229
s 2
f 163/55/66 162/54/66 161/53/66 
s 4
f 166/54/67 165/56/67 164/55/67 
s 8
f 164/54/68 167/56/68 161/55/68 
s 16
f 167/54/69 165/56/69 163/55/69 
s 32
f 165/54/70 166/56/70 162/55/70 
s 64
f 166/54/71 164/56/71 168/55/71 
s 2
f 162/54/66 168/56/66 161/53/66 
s 4
f 165/56/67 167/53/67 164/55/67 
s 8
f 167/56/68 163/53/68 161/55/68 
s 16
f 165/56/69 162/53/69 163/55/69 
s 32
f 166/56/70 168/53/70 162/55/70 
s 64
f 164/56/71 161/53/71 168/55/71 
# 0 polygons - 12 triangles

#
# object collision
#

v  -3.6267 0.0270 37.1906
v  -29.8445 0.0270 42.4846
v  -29.8445 0.0270 37.1906
v  -3.6267 6.4051 37.1906
v  -29.8445 6.4051 42.4846
v  -3.6267 6.4051 42.4846
v  -29.8445 6.4051 37.1906
v  -3.6267 0.0270 42.4846
# 8 vertices

vn 0.0000 -1.0000 -0.0000
vn 0.0000 1.0000 0.0000
vn -0.0000 0.0000 -1.0000
vn -1.0000 0.0000 -0.0000
vn 0.0000 0.0000 1.0000
vn 1.0000 0.0000 -0.0000
# 6 vertex normals

vt 1.0000 0.0000 0.0000
vt 0.0000 1.0000 0.0000
vt 0.0000 0.0000 0.0000
vt 1.0000 1.0000 0.0000
# 4 texture coords

g collision
usemtl wire_166229229
s 2
f 169/57/72 170/58/72 171/59/72 
s 4
f 172/59/73 173/60/73 174/58/73 
s 8
f 169/59/74 175/60/74 172/58/74 
s 16
f 171/59/75 173/60/75 175/58/75 
s 32
f 170/59/76 174/60/76 173/58/76 
s 64
f 176/59/77 172/60/77 174/58/77 
s 2
f 169/57/72 176/60/72 170/58/72 
s 4
f 172/59/73 175/57/73 173/60/73 
s 8
f 169/59/74 171/57/74 175/60/74 
s 16
f 171/59/75 170/57/75 173/60/75 
s 32
f 170/59/76 176/57/76 174/60/76 
s 64
f 176/59/77 169/57/77 172/60/77 
# 0 polygons - 12 triangles

#
# object collision
#

v  20.5704 0.0270 3.6089
v  30.1215 0.0270 42.4851
v  30.1216 0.0270 3.6089
v  20.5704 6.4051 3.6089
v  30.1215 6.4051 42.4851
v  20.5704 6.4051 42.4851
v  30.1216 6.4051 3.6089
v  20.5704 0.0270 42.4851
# 8 vertices

vn 0.0000 -1.0000 -0.0000
vn 0.0000 1.0000 0.0000
vn 0.0000 -0.0000 -1.0000
vn 1.0000 0.0000 0.0000
vn 1.0000 -0.0000 0.0000
vn 0.0000 -0.0000 1.0000
vn -1.0000 -0.0000 -0.0000
vn -1.0000 0.0000 -0.0000
# 8 vertex normals

vt 1.0000 0.0000 0.0000
vt 0.0000 1.0000 0.0000
vt 0.0000 0.0000 0.0000
vt 1.0000 1.0000 0.0000
# 4 texture coords

g collision
usemtl wire_166229229
s 2
f 179/63/78 178/62/78 177/61/78 
s 4
f 182/62/79 181/64/79 180/63/79 
s 8
f 180/62/80 183/64/80 177/63/80 
s 16
f 183/62/81 181/64/82 179/63/81 
s 32
f 181/62/83 182/64/83 178/63/83 
s 64
f 182/62/84 180/64/85 184/63/84 
s 2
f 178/62/78 184/64/78 177/61/78 
s 4
f 181/64/79 183/61/79 180/63/79 
s 8
f 183/64/80 179/61/80 177/63/80 
s 16
f 181/64/82 178/61/82 179/63/81 
s 32
f 182/64/83 184/61/83 178/63/83 
s 64
f 180/64/85 177/61/85 184/63/84 
# 0 polygons - 12 triangles

#
# object collision
#

v  -20.4969 0.0270 3.5768
v  -30.1081 0.0270 42.4851
v  -30.1081 0.0270 3.5768
v  -20.4969 6.4051 3.5768
v  -30.1081 6.4051 42.4851
v  -20.4969 6.4051 42.4851
v  -30.1081 6.4051 3.5768
v  -20.4969 0.0270 42.4851
# 8 vertices

vn 0.0000 -1.0000 -0.0000
vn -0.0000 1.0000 0.0000
vn -0.0000 0.0000 -1.0000
vn -1.0000 0.0000 -0.0000
vn -0.0000 0.0000 1.0000
vn 1.0000 0.0000 0.0000
# 6 vertex normals

vt 1.0000 0.0000 0.0000
vt 0.0000 1.0000 0.0000
vt 0.0000 0.0000 0.0000
vt 1.0000 1.0000 0.0000
# 4 texture coords

g collision
usemtl wire_166229229
s 2
f 185/65/86 186/66/86 187/67/86 
s 4
f 188/67/87 189/68/87 190/66/87 
s 8
f 185/67/88 191/68/88 188/66/88 
s 16
f 187/67/89 189/68/89 191/66/89 
s 32
f 186/67/90 190/68/90 189/66/90 
s 64
f 192/67/91 188/68/91 190/66/91 
s 2
f 185/65/86 192/68/86 186/66/86 
s 4
f 188/67/87 191/65/87 189/68/87 
s 8
f 185/67/88 187/65/88 191/68/88 
s 16
f 187/67/89 186/65/89 189/68/89 
s 32
f 186/67/90 192/65/90 190/68/90 
s 64
f 192/67/91 185/65/91 188/68/91 
# 0 polygons - 12 triangles

#
# object collision
#

v  20.5841 0.0270 -3.7714
v  30.1215 0.0270 -42.7167
v  30.1216 0.0270 -3.7714
v  20.5841 6.4051 -3.7714
v  30.1215 6.4051 -42.7167
v  20.5841 6.4051 -42.7167
v  30.1216 6.4051 -3.7714
v  20.5841 0.0270 -42.7167
# 8 vertices

vn 0.0000 -1.0000 -0.0000
vn 0.0000 1.0000 -0.0000
vn 0.0000 0.0000 1.0000
vn 1.0000 0.0000 -0.0000
vn 0.0000 0.0000 -1.0000
vn -1.0000 0.0000 -0.0000
# 6 vertex normals

vt 1.0000 0.0000 0.0000
vt 0.0000 1.0000 0.0000
vt 0.0000 0.0000 0.0000
vt 1.0000 1.0000 0.0000
# 4 texture coords

g collision
usemtl wire_166229229
s 2
f 193/69/92 194/70/92 195/71/92 
s 4
f 196/71/93 197/72/93 198/70/93 
s 8
f 193/71/94 199/72/94 196/70/94 
s 16
f 195/71/95 197/72/95 199/70/95 
s 32
f 194/71/96 198/72/96 197/70/96 
s 64
f 200/71/97 196/72/97 198/70/97 
s 2
f 193/69/92 200/72/92 194/70/92 
s 4
f 196/71/93 199/69/93 197/72/93 
s 8
f 193/71/94 195/69/94 199/72/94 
s 16
f 195/71/95 194/69/95 197/72/95 
s 32
f 194/71/96 200/69/96 198/72/96 
s 64
f 200/71/97 193/69/97 196/72/97 
# 0 polygons - 12 triangles

#
# object collision
#

v  -20.5351 0.0270 -3.7703
v  -30.1081 0.0270 -42.7167
v  -30.1081 0.0270 -3.7703
v  -20.5351 6.4051 -3.7703
v  -30.1081 6.4051 -42.7167
v  -20.5352 6.4051 -42.7167
v  -30.1081 6.4051 -3.7703
v  -20.5352 0.0270 -42.7167
# 8 vertices

vn 0.0000 -1.0000 0.0000
vn -0.0000 1.0000 -0.0000
vn -0.0000 0.0000 1.0000
vn -1.0000 0.0000 -0.0000
vn -0.0000 -0.0000 -1.0000
vn 1.0000 -0.0000 -0.0000
vn -0.0000 -0.0000 1.0000
# 7 vertex normals

vt 1.0000 0.0000 0.0000
vt 0.0000 1.0000 0.0000
vt 0.0000 0.0000 0.0000
vt 1.0000 1.0000 0.0000
# 4 texture coords

g collision
usemtl wire_166229229
s 2
f 203/75/98 202/74/98 201/73/98 
s 4
f 206/74/99 205/76/99 204/75/99 
s 8
f 204/74/100 207/76/100 201/75/100 
s 16
f 207/74/101 205/76/101 203/75/101 
s 32
f 205/74/102 206/76/102 202/75/102 
s 64
f 206/74/103 204/76/103 208/75/103 
s 2
f 202/74/98 208/76/98 201/73/98 
s 4
f 205/76/99 207/73/99 204/75/99 
s 8
f 207/76/100 203/73/104 201/75/100 
s 16
f 205/76/101 202/73/101 203/75/101 
s 32
f 206/76/102 208/73/102 202/75/102 
s 64
f 204/76/103 201/73/103 208/75/103 
# 0 polygons - 12 triangles

