# 3ds Max Wavefront OBJ Exporter v0.97b - (c)2007 guruware
# File Created: 30.04.2019 09:53:44

mtllib HealthPlane.mtl

#
# object HealthPlane
#

v  -1.5000 0.0000 -1.5000
v  -1.5000 0.0000 1.5000
v  1.5000 0.0000 -1.5000
v  1.5000 0.0000 1.5000
# 4 vertices

vn 0.0000 1.0000 -0.0000
# 1 vertex normals

vt 0.0000 1.0000 0.0000
vt 0.0000 0.0000 0.0000
vt 1.0000 1.0000 0.0000
vt 1.0000 0.0000 0.0000
# 4 texture coords

g HealthPlane
usemtl wire_008110135
s 1
f 1/1/1 2/2/1 3/3/1 
f 2/2/1 4/4/1 3/3/1 
# 0 polygons - 2 triangles

