# 3ds Max Wavefront OBJ Exporter v0.97b - (c)2007 guruware
# File Created: 29.04.2019 13:04:32

mtllib LifePowerUp.mtl

#
# object lifePowerUp
#

v  0.0000 0.7168 -0.0000
v  0.3584 0.5799 0.2215
v  0.3584 0.5799 -0.2215
v  0.5799 0.2215 -0.3584
v  0.2215 0.3584 -0.5799
v  -0.0000 -0.0000 -0.7168
v  -0.2215 0.3584 -0.5799
v  -0.5799 0.2215 -0.3584
v  -0.3584 0.5799 -0.2215
v  -0.3584 0.5799 0.2215
v  -0.5799 0.2215 0.3584
v  -0.2215 0.3584 0.5799
v  0.0000 0.0000 0.7168
v  0.2215 0.3584 0.5799
v  0.5799 0.2215 0.3584
v  0.7168 0.0000 0.0000
v  0.5799 -0.2215 -0.3584
v  0.5799 -0.2215 0.3584
v  -0.2215 -0.3584 0.5799
v  0.2215 -0.3584 0.5799
v  0.3584 -0.5799 0.2215
v  0.3584 -0.5799 -0.2215
v  0.2215 -0.3584 -0.5799
v  0.0000 -0.7168 0.0000
v  -0.5799 -0.2215 0.3584
v  -0.3584 -0.5799 0.2215
v  -0.3584 -0.5799 -0.2215
v  -0.2215 -0.3584 -0.5799
v  -0.5799 -0.2215 -0.3584
v  -0.7168 -0.0000 -0.0000
v  1.1011 0.4570 -0.0000
v  1.4472 0.1108 -0.0000
v  1.2533 0.1108 -0.7236
v  0.9535 0.4570 -0.5505
v  0.7236 0.1108 -1.2533
v  0.5505 0.4570 -0.9535
v  -0.0000 0.1108 -1.4472
v  -0.0000 0.4570 -1.1011
v  -0.7236 0.1108 -1.2533
v  -0.5505 0.4570 -0.9535
v  -1.2533 0.1108 -0.7236
v  -0.9535 0.4570 -0.5505
v  -1.4472 0.1108 -0.0000
v  -1.1011 0.4570 -0.0000
v  -1.2533 0.1108 0.7236
v  -0.9535 0.4570 0.5505
v  -0.7236 0.1108 1.2533
v  -0.5505 0.4570 0.9535
v  -0.0000 0.1108 1.4472
v  -0.0000 0.4570 1.1011
v  0.7236 0.1108 1.2533
v  0.5505 0.4570 0.9535
v  1.2533 0.1108 0.7236
v  0.9535 0.4570 0.5505
v  1.4472 -0.1108 -0.0000
v  1.2533 -0.1108 -0.7236
v  0.7236 -0.1108 -1.2533
v  -0.0000 -0.1108 -1.4472
v  -0.7236 -0.1108 -1.2533
v  -1.2533 -0.1108 -0.7236
v  -1.4472 -0.1108 -0.0000
v  -1.2533 -0.1108 0.7236
v  -0.7236 -0.1108 1.2533
v  -0.0000 -0.1108 1.4472
v  0.9359 0.4570 -0.0000
v  0.8105 0.4570 -0.4680
v  0.4680 0.4570 -0.8105
v  -0.0000 0.4570 -0.9359
v  -0.4680 0.4570 -0.8105
v  -0.8105 0.4570 -0.4680
v  -0.9359 0.4570 -0.0000
v  -0.8105 0.4570 0.4680
v  -0.4680 0.4570 0.8105
v  -0.0000 0.4570 0.9359
v  0.4680 0.4570 0.8105
v  0.8105 0.4570 0.4680
v  0.8105 -0.4570 -0.4680
v  0.9359 -0.4570 -0.0000
v  0.4680 -0.4570 -0.8105
v  -0.0000 -0.4570 -0.9359
v  -0.8105 -0.4570 -0.4680
v  -0.4680 -0.4570 -0.8105
v  -0.9359 -0.4570 -0.0000
v  0.4680 -0.4570 0.8105
v  -0.0000 -0.4570 0.9359
v  0.8105 -0.4570 0.4680
v  1.1011 -0.4570 -0.0000
v  0.9535 -0.4570 -0.5505
v  0.5505 -0.4570 -0.9535
v  -0.0000 -0.4570 -1.1011
v  -0.5505 -0.4570 -0.9535
v  -0.9535 -0.4570 -0.5505
v  -1.1011 -0.4570 -0.0000
v  -0.9535 -0.4570 0.5505
v  -0.5505 -0.4570 0.9535
v  -0.0000 -0.4570 1.1011
v  0.5505 -0.4570 0.9535
v  0.7236 -0.1108 1.2533
v  0.9535 -0.4570 0.5505
v  1.2533 -0.1108 0.7236
v  -0.8105 -0.4570 0.4680
v  -0.4680 -0.4570 0.8105
# 102 vertices

vn 0.3568 0.9342 -0.0000
vn 0.5774 0.5774 -0.5774
vn 0.0000 0.3568 -0.9342
vn -0.5774 0.5774 -0.5774
vn -0.3568 0.9342 -0.0000
vn -0.5774 0.5774 0.5774
vn 0.0000 0.3568 0.9342
vn 0.5774 0.5774 0.5774
vn 0.9342 0.0000 -0.3568
vn 0.9342 0.0000 0.3568
vn 0.0000 -0.3568 0.9342
vn 0.5774 -0.5774 0.5774
vn 0.5774 -0.5774 -0.5774
vn 0.3568 -0.9342 -0.0000
vn -0.5774 -0.5774 0.5774
vn -0.3568 -0.9342 -0.0000
vn 0.0000 -0.3568 -0.9342
vn -0.5774 -0.5774 -0.5774
vn -0.9342 0.0000 0.3568
vn -0.9342 0.0000 -0.3568
vn 0.0000 0.8507 -0.5257
vn 0.0000 0.8507 0.5257
vn 0.8507 0.5257 -0.0000
vn 0.5257 0.0000 0.8507
vn 0.8507 -0.5257 -0.0000
vn 0.0000 -0.8507 0.5257
vn 0.0000 -0.8507 -0.5257
vn -0.8507 -0.5257 -0.0000
vn -0.5257 0.0000 -0.8507
vn -0.8507 0.5257 -0.0000
vn -0.5257 0.0000 0.8507
vn 0.5257 0.0000 -0.8507
vn 0.7071 0.7071 0.0000
vn 0.6124 0.7071 -0.3536
vn 0.3536 0.7071 -0.6124
vn -0.0000 0.7071 -0.7071
vn -0.3536 0.7071 -0.6124
vn -0.6124 0.7071 -0.3536
vn -0.7071 0.7071 -0.0000
vn -0.6124 0.7071 0.3536
vn -0.3536 0.7071 0.6124
vn -0.0000 0.7071 0.7071
vn 0.3536 0.7071 0.6124
vn 0.6124 0.7071 0.3536
vn 1.0000 0.0000 0.0000
vn 0.8660 0.0000 -0.5000
vn 0.5000 0.0000 -0.8660
vn -0.0000 0.0000 -1.0000
vn -0.5000 0.0000 -0.8660
vn -0.8660 0.0000 -0.5000
vn -1.0000 0.0000 -0.0000
vn -0.8660 0.0000 0.5000
vn -0.5000 0.0000 0.8660
vn -0.0000 0.0000 1.0000
vn 0.0000 1.0000 -0.0000
vn 0.0000 0.0000 1.0000
vn 0.5000 0.0000 0.8660
vn 0.8660 0.0000 0.5000
vn 0.0000 0.0000 -1.0000
vn 0.7071 -0.7071 0.0000
vn 0.6124 -0.7071 -0.3536
vn 0.3536 -0.7071 -0.6124
vn -0.0000 -0.7071 -0.7071
vn -0.3536 -0.7071 -0.6124
vn -0.6124 -0.7071 -0.3536
vn -0.7071 -0.7071 -0.0000
vn -0.6124 -0.7071 0.3536
vn -0.3536 -0.7071 0.6124
vn -0.0000 -0.7071 0.7071
vn 0.3536 -0.7071 0.6124
vn 0.6124 -0.7071 0.3536
vn 0.0000 -1.0000 -0.0000
# 72 vertex normals

vt 0.5910 0.5339 1.0030
vt 0.7050 0.7183 0.8115
vt 0.4770 0.7183 0.8115
vt 0.4065 0.8323 0.3100
vt 0.2925 0.6479 0.5015
vt 0.2221 0.5339 0.0000
vt 0.2925 0.4199 0.5015
vt 0.4065 0.2355 0.3100
vt 0.4770 0.3494 0.8115
vt 0.7050 0.3494 0.8115
vt 0.7754 0.2355 0.3100
vt 0.8894 0.4199 0.5015
vt 0.9598 0.5339 0.0000
vt 0.8894 0.6479 0.5015
vt 0.7754 0.8323 0.3100
vt 0.5910 0.9028 0.0000
vt 0.4065 0.8323 -0.3100
vt 0.7754 0.8323 -0.3100
vt 0.8894 0.4199 -0.5015
vt 0.8894 0.6479 -0.5015
vt 0.7050 0.7183 -0.8115
vt 0.4770 0.7183 -0.8115
vt 0.2925 0.6479 -0.5015
vt 0.5910 0.5339 -1.0030
vt 0.7754 0.2355 -0.3100
vt 0.7050 0.3494 -0.8115
vt 0.4770 0.3494 -0.8115
vt 0.2925 0.4199 -0.5015
vt 0.4065 0.2355 -0.3100
vt 0.5910 0.1650 0.0000
vt 0.1831 0.4884 0.0000
vt 0.1239 0.4864 0.0000
vt 0.1281 0.4095 0.0000
vt 0.1871 0.4123 0.0000
vt 0.1325 0.3327 0.0000
vt 0.1912 0.3362 0.0000
vt 0.1368 0.2556 0.0000
vt 0.1952 0.2600 0.0000
vt 0.1412 0.1771 0.0000
vt 0.1988 0.1844 0.0000
vt 0.1463 0.0954 0.0000
vt 0.2036 0.1102 0.0000
vt 0.1597 0.0089 0.0000
vt 0.2210 0.0409 0.0000
vt 0.1855 0.9358 0.0000
vt 0.1219 0.9629 0.0000
vt 0.1155 0.8756 0.0000
vt 0.1738 0.8654 0.0000
vt 0.1173 0.7936 0.0000
vt 0.1749 0.7910 0.0000
vt 0.1184 0.7149 0.0000
vt 0.1768 0.7154 0.0000
vt 0.1193 0.6381 0.0000
vt 0.1783 0.6396 0.0000
vt 0.1201 0.5625 0.0000
vt 0.1799 0.5640 0.0000
vt 0.0971 0.4856 0.0000
vt 0.1013 0.4083 0.0000
vt 0.1058 0.3313 0.0000
vt 0.1109 0.2541 0.0000
vt 0.1164 0.1757 0.0000
vt 0.1216 0.0939 0.0000
vt 0.1190 0.0064 0.0000
vt 0.0812 0.9622 0.0000
vt 0.0908 0.8751 0.0000
vt 0.0927 0.7932 0.0000
vt 0.0927 0.7141 0.0000
vt 0.2028 0.4891 0.0000
vt 0.2066 0.4133 0.0000
vt 0.2107 0.3373 0.0000
vt 0.2146 0.2615 0.0000
vt 0.2182 0.1869 0.0000
vt 0.2232 0.1161 0.0000
vt 0.2390 0.0543 0.0000
vt 0.2045 0.9240 0.0000
vt 0.1937 0.8611 0.0000
vt 0.1944 0.7901 0.0000
vt 0.1963 0.7156 0.0000
vt 0.1979 0.6401 0.0000
vt 0.1997 0.5646 0.0000
vt 0.6093 0.1249 0.0000
vt 0.5505 0.1273 0.0000
vt 0.5461 0.0164 0.0000
vt 0.6048 0.0141 0.0000
vt 0.4918 0.1296 0.0000
vt 0.4873 0.0188 0.0000
vt 0.4331 0.1320 0.0000
vt 0.4286 0.0212 0.0000
vt 0.3743 0.1344 0.0000
vt 0.3156 0.1367 0.0000
vt 0.3111 0.0259 0.0000
vt 0.3698 0.0235 0.0000
vt 0.2568 0.1391 0.0000
vt 0.2523 0.0283 0.0000
vt 0.7855 0.1179 0.0000
vt 0.7268 0.1202 0.0000
vt 0.7223 0.0094 0.0000
vt 0.7811 0.0070 0.0000
vt 0.6680 0.1226 0.0000
vt 0.6636 0.0117 0.0000
vt 0.0383 0.4817 0.0000
vt 0.0425 0.4050 0.0000
vt 0.0472 0.3282 0.0000
vt 0.0525 0.2517 0.0000
vt 0.0584 0.1759 0.0000
vt 0.0629 0.1017 0.0000
vt 0.0543 0.0308 0.0000
vt 0.0186 0.9328 0.0000
vt 0.0329 0.8628 0.0000
vt 0.0345 0.7886 0.0000
vt 0.0342 0.7128 0.0000
vt 0.0337 0.6372 0.0000
vt 0.0922 0.6346 0.0000
vt 0.0341 0.5574 0.0000
vt 0.0921 0.5649 0.0000
vt 0.0187 0.4806 0.0000
vt 0.0230 0.4038 0.0000
vt 0.0277 0.3271 0.0000
vt 0.0330 0.2509 0.0000
vt 0.0388 0.1761 0.0000
vt 0.0428 0.1051 0.0000
vt 0.0347 0.0418 0.0000
vt 0.0000 0.9203 0.0000
vt 0.0132 0.8579 0.0000
vt 0.0149 0.7870 0.0000
vt 0.0146 0.7124 0.0000
vt 0.0142 0.6358 0.0000
vt 0.0149 0.5579 0.0000
vt 0.9573 0.0000 0.0000
vt 0.9618 0.1108 0.0000
vt 0.9030 0.1132 0.0000
vt 0.8986 0.0023 0.0000
vt 0.8443 0.1155 0.0000
vt 0.8398 0.0047 0.0000
# 134 texture coords

g lifePowerUp
usemtl Room
s off
f 1/1/1 2/2/1 3/3/1 
f 3/3/2 4/4/2 5/5/2 
f 5/5/3 6/6/3 7/7/3 
f 7/7/4 8/8/4 9/9/4 
f 9/9/5 10/10/5 1/1/5 
f 10/10/6 11/11/6 12/12/6 
f 12/12/7 13/13/7 14/14/7 
f 14/14/8 15/15/8 2/2/8 
f 16/16/9 17/17/9 4/4/9 
f 15/15/10 18/18/10 16/16/10 
f 13/13/11 19/19/11 20/20/11 
f 20/20/12 21/21/12 18/18/12 
f 22/22/13 23/23/13 17/17/13 
f 21/21/14 24/24/14 22/22/14 
f 19/19/15 25/25/15 26/26/15 
f 26/26/16 27/27/16 24/24/16 
f 28/28/17 6/6/17 23/23/17 
f 27/27/18 29/29/18 28/28/18 
f 25/25/19 11/11/19 30/30/19 
f 30/30/20 8/8/20 29/29/20 
f 3/3/21 5/5/21 7/7/21 9/9/21 1/1/21 
f 10/10/22 12/12/22 14/14/22 2/2/22 1/1/22 
f 2/2/23 15/15/23 16/16/23 4/4/23 3/3/23 
f 14/14/24 13/13/24 20/20/24 18/18/24 15/15/24 
f 18/18/25 21/21/25 22/22/25 17/17/25 16/16/25 
f 20/20/26 19/19/26 26/26/26 24/24/26 21/21/26 
f 24/24/27 27/27/27 28/28/27 23/23/27 22/22/27 
f 26/26/28 25/25/28 30/30/28 29/29/28 27/27/28 
f 29/29/29 8/8/29 7/7/29 6/6/29 28/28/29 
f 30/30/30 11/11/30 10/10/30 9/9/30 8/8/30 
f 11/11/31 25/25/31 19/19/31 13/13/31 12/12/31 
f 5/5/32 4/4/32 17/17/32 23/23/32 6/6/32 
s 8
f 31/31/33 32/32/33 33/33/34 34/34/34 
f 34/34/34 33/33/34 35/35/35 36/36/35 
f 36/36/35 35/35/35 37/37/36 38/38/36 
f 38/38/36 37/37/36 39/39/37 40/40/37 
f 40/40/37 39/39/37 41/41/38 42/42/38 
f 42/42/38 41/41/38 43/43/39 44/44/39 
f 44/45/39 43/46/39 45/47/40 46/48/40 
f 46/48/40 45/47/40 47/49/41 48/50/41 
f 48/50/41 47/49/41 49/51/42 50/52/42 
f 50/52/42 49/51/42 51/53/43 52/54/43 
f 52/54/43 51/53/43 53/55/44 54/56/44 
f 54/56/44 53/55/44 32/32/33 31/31/33 
s 16
f 32/32/45 55/57/45 56/58/46 33/33/46 
f 33/33/46 56/58/46 57/59/47 35/35/47 
f 35/35/47 57/59/47 58/60/48 37/37/48 
f 37/37/48 58/60/48 59/61/49 39/39/49 
f 39/39/49 59/61/49 60/62/50 41/41/50 
f 41/41/50 60/62/50 61/63/51 43/43/51 
f 43/46/51 61/64/51 62/65/52 45/47/52 
f 47/49/53 63/66/53 64/67/54 49/51/54 
s 4
f 65/68/55 31/31/55 34/34/55 66/69/55 
f 66/69/55 34/34/55 36/36/55 67/70/55 
f 67/70/55 36/36/55 38/38/55 68/71/55 
f 68/71/55 38/38/55 40/40/55 69/72/55 
f 69/72/55 40/40/55 42/42/55 70/73/55 
f 70/73/55 42/42/55 44/44/55 71/74/55 
f 71/75/55 44/45/55 46/48/55 72/76/55 
f 72/76/55 46/48/55 48/50/55 73/77/55 
f 73/77/55 48/50/55 50/52/55 74/78/55 
f 74/78/55 50/52/55 52/54/55 75/79/55 
f 75/79/55 52/54/55 54/56/55 76/80/55 
f 76/80/55 54/56/55 31/31/55 65/68/55 
s 1
f 65/81/51 66/82/52 77/83/52 78/84/51 
f 66/82/52 67/85/53 79/86/53 77/83/52 
f 67/85/53 68/87/56 80/88/56 79/86/53 
f 69/89/57 70/90/58 81/91/58 82/92/57 
f 70/90/58 71/93/45 83/94/45 81/91/58 
f 74/95/59 75/96/49 84/97/49 85/98/59 
f 75/96/49 76/99/50 86/100/50 84/97/49 
s 8
f 87/101/60 88/102/61 56/58/61 55/57/60 
f 88/102/61 89/103/62 57/59/62 56/58/61 
f 89/103/62 90/104/63 58/60/63 57/59/62 
f 90/104/63 91/105/64 59/61/64 58/60/63 
f 91/105/64 92/106/65 60/62/65 59/61/64 
f 92/106/65 93/107/66 61/63/66 60/62/65 
f 93/108/66 94/109/67 62/65/67 61/64/66 
f 94/109/67 95/110/68 63/66/68 62/65/67 
f 95/110/68 96/111/69 64/67/69 63/66/68 
f 96/111/69 97/112/70 98/113/70 64/67/69 
f 97/112/70 99/114/71 100/115/71 98/113/70 
f 99/114/71 87/101/60 55/57/60 100/115/71 
s 16
f 62/65/52 63/66/53 47/49/53 45/47/52 
f 64/67/54 98/113/57 51/53/57 49/51/54 
f 98/113/57 100/115/58 53/55/58 51/53/57 
f 100/115/58 55/57/45 32/32/45 53/55/58 
s 4
f 78/116/72 77/117/72 88/102/72 87/101/72 
f 77/117/72 79/118/72 89/103/72 88/102/72 
f 79/118/72 80/119/72 90/104/72 89/103/72 
f 80/119/72 82/120/72 91/105/72 90/104/72 
f 82/120/72 81/121/72 92/106/72 91/105/72 
f 81/121/72 83/122/72 93/107/72 92/106/72 
f 83/123/72 101/124/72 94/109/72 93/108/72 
f 101/124/72 102/125/72 95/110/72 94/109/72 
f 102/125/72 85/126/72 96/111/72 95/110/72 
f 85/126/72 84/127/72 97/112/72 96/111/72 
f 84/127/72 86/128/72 99/114/72 97/112/72 
f 86/128/72 78/116/72 87/101/72 99/114/72 
s 1
f 80/88/56 68/87/56 69/89/57 82/92/57 
f 83/129/45 71/130/45 72/131/46 101/132/46 
f 101/132/46 72/131/46 73/133/47 102/134/47 
f 102/134/47 73/133/47 74/95/59 85/98/59 
f 86/100/50 76/99/50 65/81/51 78/84/51 
# 84 polygons - 20 triangles

