# 3ds Max Wavefront OBJ Exporter v0.97b - (c)2007 guruware
# File Created: 29.04.2019 11:27:08

mtllib roomStart.mtl

#
# object room
#

v  -40.0000 7.0000 20.0000
v  -40.0000 7.0000 25.0000
v  -35.0000 7.0000 20.0000
v  35.0000 7.0000 25.0000
v  35.0000 7.0000 20.0000
v  -40.0000 7.0000 -25.0000
v  -40.0000 7.0000 -20.0000
v  -35.0000 7.0000 -25.0000
v  5.0000 7.0000 -25.0000
v  5.0000 7.0000 -20.0000
v  35.0000 7.0000 -25.0000
v  -35.0000 7.0000 -20.0000
v  -5.0000 7.0000 -20.0000
v  40.0000 7.0000 25.0000
v  35.0000 7.0000 -20.0000
v  40.0000 7.0000 -20.0000
v  -40.0000 0.0000 20.0000
v  -40.0000 0.0000 25.0000
v  -35.0000 7.0000 25.0000
v  -35.0000 0.0000 25.0000
v  35.0000 0.0000 25.0000
v  40.0000 0.0000 25.0000
v  40.0000 7.0000 20.0000
v  40.0000 0.0000 20.0000
v  40.0000 0.0000 -20.0000
v  40.0000 7.0000 -25.0000
v  40.0000 0.0000 -25.0000
v  35.0000 0.0000 -25.0000
v  5.0000 0.0000 -25.0000
v  5.0000 0.0000 -20.0000
v  35.0000 0.0000 -20.0000
v  35.0000 0.0000 20.0000
v  -35.0000 0.0000 20.0000
v  -35.0000 0.0000 -20.0000
v  -5.0000 0.0000 -20.0000
v  -5.0000 7.0000 -25.0000
v  -5.0000 0.0000 -25.0000
v  -35.0000 0.0000 -25.0000
v  -40.0000 0.0000 -25.0000
v  -40.0000 0.0000 -20.0000
# 40 vertices

vn 0.0000 1.0000 -0.0000
vn -1.0000 0.0000 -0.0000
vn 0.0000 0.0000 1.0000
vn 1.0000 0.0000 -0.0000
vn 0.0000 0.0000 -1.0000
vn -0.0000 0.0000 -1.0000
# 6 vertex normals

vt 0.0000 0.3333 0.0000
vt 0.0000 0.0000 0.0000
vt 0.1667 0.3333 0.0000
vt 0.5417 0.3333 0.0000
vt 0.8333 0.0000 0.0000
vt 0.8333 0.3333 0.0000
vt 0.0000 1.0000 0.0000
vt 0.0000 0.6667 0.0000
vt 0.1667 1.0000 0.0000
vt 0.6667 1.0000 0.0000
vt 0.6667 0.6667 0.0000
vt 0.8333 1.0000 0.0000
vt 0.1667 0.6667 0.0000
vt 0.3333 0.6667 0.0000
vt 1.0000 0.0000 0.0000
vt 0.8333 0.6667 0.0000
vt 1.0000 0.6667 0.0000
vt 0.1667 0.5111 0.0000
vt 0.0000 0.5111 0.0000
vt 1.0000 0.5111 0.0000
vt 0.8333 0.5111 0.0000
vt 0.1667 0.0000 0.0000
vt 0.5417 0.0000 0.0000
vt 1.0000 0.3333 0.0000
vt 1.0000 1.0000 0.0000
vt 0.3333 1.0000 0.0000
# 26 texture coords

g room
usemtl Room
s 1
f 1/1/1 2/2/1 3/3/1 
f 3/4/1 4/5/1 5/6/1 
f 6/7/1 7/8/1 8/9/1 
f 9/10/1 10/11/1 11/12/1 
f 12/13/1 13/14/1 8/9/1 
f 4/5/1 14/15/1 5/6/1 
f 15/16/1 16/17/1 11/12/1 
f 1/1/1 12/18/1 7/19/1 
f 5/6/1 16/20/1 15/21/1 
s off
f 17/1/2 2/2/2 1/1/2 
f 18/2/3 19/22/3 2/2/3 
f 20/23/3 4/5/3 19/23/3 
f 21/5/3 14/15/3 4/5/3 
f 22/15/4 23/24/4 14/15/4 
f 24/24/4 16/20/4 23/24/4 
f 25/17/4 26/25/4 16/17/4 
f 27/25/5 11/12/5 26/25/5 
f 28/12/5 9/10/5 11/12/5 
f 29/10/2 10/11/2 9/10/2 
f 30/11/3 15/16/3 10/11/3 
f 31/21/2 5/6/2 15/21/2 
f 32/6/5 3/4/5 5/6/5 
f 33/3/4 12/18/4 3/3/4 
f 34/13/3 13/14/3 12/13/3 
f 35/14/4 36/26/4 13/14/4 
f 37/26/5 8/9/5 36/26/5 
f 38/9/6 6/7/6 8/9/6 
f 39/7/2 7/8/2 6/7/2 
f 40/19/2 1/1/2 7/19/2 
s 1
f 39/7/1 18/2/1 27/25/1 
f 2/2/1 19/22/1 3/3/1 
f 3/4/1 19/23/1 4/5/1 
f 7/8/1 12/13/1 8/9/1 
f 10/11/1 15/16/1 11/12/1 
f 13/14/1 36/26/1 8/9/1 
f 14/15/1 23/24/1 5/6/1 
f 16/17/1 26/25/1 11/12/1 
f 1/1/1 3/3/1 12/18/1 
f 5/6/1 23/24/1 16/20/1 
s off
f 17/1/2 18/2/2 2/2/2 
f 18/2/3 20/22/3 19/22/3 
f 20/23/3 21/5/3 4/5/3 
f 21/5/3 22/15/3 14/15/3 
f 22/15/4 24/24/4 23/24/4 
f 24/24/4 25/20/4 16/20/4 
f 25/17/4 27/25/4 26/25/4 
f 27/25/5 28/12/5 11/12/5 
f 28/12/5 29/10/5 9/10/5 
f 29/10/2 30/11/2 10/11/2 
f 30/11/3 31/16/3 15/16/3 
f 31/21/2 32/6/2 5/6/2 
f 32/6/5 33/4/5 3/4/5 
f 33/3/4 34/18/4 12/18/4 
f 34/13/3 35/14/3 13/14/3 
f 35/14/4 37/26/4 36/26/4 
f 37/26/5 38/9/5 8/9/5 
f 38/9/6 39/7/6 6/7/6 
f 39/7/2 40/8/2 7/8/2 
f 40/19/2 17/1/2 1/1/2 
s 1
f 18/2/1 22/15/1 27/25/1 
# 0 polygons - 60 triangles

#
# object collision
#

v  -40.0000 0.0000 25.0000
v  40.0000 0.0000 20.0000
v  40.0000 0.0000 25.0000
v  -40.0000 7.0000 25.0000
v  40.0000 7.0000 20.0000
v  -40.0000 7.0000 20.0000
v  40.0000 7.0000 25.0000
v  -40.0000 0.0000 20.0000
# 8 vertices

vn 0.0000 -1.0000 -0.0000
vn 0.0000 1.0000 -0.0000
vn 0.0000 0.0000 1.0000
vn 1.0000 0.0000 -0.0000
vn 0.0000 0.0000 -1.0000
vn -1.0000 0.0000 -0.0000
# 6 vertex normals

vt 1.0000 0.0000 0.0000
vt 0.0000 1.0000 0.0000
vt 0.0000 0.0000 0.0000
vt 1.0000 1.0000 0.0000
# 4 texture coords

g collision
usemtl Room
s 2
f 41/27/7 42/28/7 43/29/7 
s 4
f 44/29/8 45/30/8 46/28/8 
s 8
f 41/29/9 47/30/9 44/28/9 
s 16
f 43/29/10 45/30/10 47/28/10 
s 32
f 42/29/11 46/30/11 45/28/11 
s 64
f 48/29/12 44/30/12 46/28/12 
s 2
f 41/27/7 48/30/7 42/28/7 
s 4
f 44/29/8 47/27/8 45/30/8 
s 8
f 41/29/9 43/27/9 47/30/9 
s 16
f 43/29/10 42/27/10 45/30/10 
s 32
f 42/29/11 48/27/11 46/30/11 
s 64
f 48/29/12 41/27/12 44/30/12 
# 0 polygons - 12 triangles

#
# object collision
#

v  5.0000 -0.0000 -20.0000
v  40.0000 -0.0000 -25.0000
v  40.0000 -0.0000 -20.0000
v  5.0000 7.0000 -20.0000
v  40.0000 7.0000 -25.0000
v  5.0000 7.0000 -25.0000
v  40.0000 7.0000 -20.0000
v  5.0000 -0.0000 -25.0000
# 8 vertices

vn 0.0000 -1.0000 -0.0000
vn 0.0000 1.0000 -0.0000
vn 0.0000 0.0000 1.0000
vn 1.0000 0.0000 -0.0000
vn 0.0000 0.0000 -1.0000
vn -1.0000 0.0000 -0.0000
# 6 vertex normals

vt 1.0000 0.0000 0.0000
vt 0.0000 1.0000 0.0000
vt 0.0000 0.0000 0.0000
vt 1.0000 1.0000 0.0000
# 4 texture coords

g collision
usemtl Room
s 2
f 49/31/13 50/32/13 51/33/13 
s 4
f 52/33/14 53/34/14 54/32/14 
s 8
f 49/33/15 55/34/15 52/32/15 
s 16
f 51/33/16 53/34/16 55/32/16 
s 32
f 50/33/17 54/34/17 53/32/17 
s 64
f 56/33/18 52/34/18 54/32/18 
s 2
f 49/31/13 56/34/13 50/32/13 
s 4
f 52/33/14 55/31/14 53/34/14 
s 8
f 49/33/15 51/31/15 55/34/15 
s 16
f 51/33/16 50/31/16 53/34/16 
s 32
f 50/33/17 56/31/17 54/34/17 
s 64
f 56/33/18 49/31/18 52/34/18 
# 0 polygons - 12 triangles

#
# object collision
#

v  35.0000 0.0000 25.0000
v  40.0000 0.0000 -25.0000
v  40.0000 0.0000 25.0000
v  35.0000 7.0000 25.0000
v  40.0000 7.0000 -25.0000
v  35.0000 7.0000 -25.0000
v  40.0000 7.0000 25.0000
v  35.0000 0.0000 -25.0000
# 8 vertices

vn 0.0000 -1.0000 -0.0000
vn 0.0000 1.0000 -0.0000
vn 0.0000 0.0000 1.0000
vn 1.0000 0.0000 -0.0000
vn 0.0000 0.0000 -1.0000
vn -1.0000 0.0000 -0.0000
# 6 vertex normals

vt 1.0000 0.0000 0.0000
vt 0.0000 1.0000 0.0000
vt 0.0000 0.0000 0.0000
vt 1.0000 1.0000 0.0000
# 4 texture coords

g collision
usemtl Room
s 2
f 57/35/19 58/36/19 59/37/19 
s 4
f 60/37/20 61/38/20 62/36/20 
s 8
f 57/37/21 63/38/21 60/36/21 
s 16
f 59/37/22 61/38/22 63/36/22 
s 32
f 58/37/23 62/38/23 61/36/23 
s 64
f 64/37/24 60/38/24 62/36/24 
s 2
f 57/35/19 64/38/19 58/36/19 
s 4
f 60/37/20 63/35/20 61/38/20 
s 8
f 57/37/21 59/35/21 63/38/21 
s 16
f 59/37/22 58/35/22 61/38/22 
s 32
f 58/37/23 64/35/23 62/38/23 
s 64
f 64/37/24 57/35/24 60/38/24 
# 0 polygons - 12 triangles

#
# object collision
#

v  -40.0000 0.0000 25.0000
v  -35.0000 0.0000 -25.0000
v  -35.0000 0.0000 25.0000
v  -40.0000 7.0000 25.0000
v  -35.0000 7.0000 -25.0000
v  -40.0000 7.0000 -25.0000
v  -35.0000 7.0000 25.0000
v  -40.0000 0.0000 -25.0000
# 8 vertices

vn 0.0000 -1.0000 -0.0000
vn 0.0000 1.0000 -0.0000
vn 0.0000 0.0000 1.0000
vn 1.0000 0.0000 -0.0000
vn 0.0000 0.0000 -1.0000
vn -1.0000 0.0000 -0.0000
# 6 vertex normals

vt 1.0000 0.0000 0.0000
vt 0.0000 1.0000 0.0000
vt 0.0000 0.0000 0.0000
vt 1.0000 1.0000 0.0000
# 4 texture coords

g collision
usemtl Room
s 2
f 65/39/25 66/40/25 67/41/25 
s 4
f 68/41/26 69/42/26 70/40/26 
s 8
f 65/41/27 71/42/27 68/40/27 
s 16
f 67/41/28 69/42/28 71/40/28 
s 32
f 66/41/29 70/42/29 69/40/29 
s 64
f 72/41/30 68/42/30 70/40/30 
s 2
f 65/39/25 72/42/25 66/40/25 
s 4
f 68/41/26 71/39/26 69/42/26 
s 8
f 65/41/27 67/39/27 71/42/27 
s 16
f 67/41/28 66/39/28 69/42/28 
s 32
f 66/41/29 72/39/29 70/42/29 
s 64
f 72/41/30 65/39/30 68/42/30 
# 0 polygons - 12 triangles

#
# object collision
#

v  -40.0000 0.0000 -20.0000
v  -5.0000 0.0000 -25.0000
v  -5.0000 0.0000 -20.0000
v  -40.0000 7.0000 -20.0000
v  -5.0000 7.0000 -25.0000
v  -40.0000 7.0000 -25.0000
v  -5.0000 7.0000 -20.0000
v  -40.0000 0.0000 -25.0000
# 8 vertices

vn 0.0000 -1.0000 -0.0000
vn 0.0000 1.0000 -0.0000
vn 0.0000 0.0000 1.0000
vn 1.0000 0.0000 -0.0000
vn 0.0000 0.0000 -1.0000
vn -1.0000 0.0000 -0.0000
# 6 vertex normals

vt 1.0000 0.0000 0.0000
vt 0.0000 1.0000 0.0000
vt 0.0000 0.0000 0.0000
vt 1.0000 1.0000 0.0000
# 4 texture coords

g collision
usemtl Room
s 2
f 73/43/31 74/44/31 75/45/31 
s 4
f 76/45/32 77/46/32 78/44/32 
s 8
f 73/45/33 79/46/33 76/44/33 
s 16
f 75/45/34 77/46/34 79/44/34 
s 32
f 74/45/35 78/46/35 77/44/35 
s 64
f 80/45/36 76/46/36 78/44/36 
s 2
f 73/43/31 80/46/31 74/44/31 
s 4
f 76/45/32 79/43/32 77/46/32 
s 8
f 73/45/33 75/43/33 79/46/33 
s 16
f 75/45/34 74/43/34 77/46/34 
s 32
f 74/45/35 80/43/35 78/46/35 
s 64
f 80/45/36 73/43/36 76/46/36 
# 0 polygons - 12 triangles

