# 3ds Max Wavefront OBJ Exporter v0.97b - (c)2007 guruware
# File Created: 19.05.2019 22:56:31

mtllib Room21.mtl

#
# object room2x7
#

v  120.0000 7.0000 -375.0000
v  123.6000 7.0000 -371.0000
v  196.4000 7.0000 -371.0000
v  200.0000 7.0000 -375.0000
v  120.0000 0.0000 -375.0000
v  120.0000 5.9500 -375.0000
v  200.0000 5.9500 -375.0000
v  200.0000 0.0000 -375.0000
v  195.0000 0.0000 -370.0000
v  195.0000 5.9500 -370.0000
v  125.0000 5.9500 -370.0000
v  125.0000 0.0000 -370.0000
v  123.6000 7.0000 -329.0000
v  120.0000 7.0000 -325.0000
v  200.0000 7.0000 -325.0000
v  196.4000 7.0000 -329.0000
v  125.0000 0.0000 -330.0000
v  125.0000 5.9500 -330.0000
v  195.0000 5.9500 -330.0000
v  195.0000 0.0000 -330.0000
v  120.0000 5.9500 -325.0000
v  200.0000 5.9500 -325.0000
v  120.0000 0.0000 -325.0000
v  200.0000 0.0000 -325.0000
v  120.0000 5.9500 -344.9990
v  120.0000 0.0000 -344.9990
v  120.0000 0.0000 -355.0000
v  120.0000 5.9500 -355.0000
v  120.0000 7.0000 -343.9988
v  123.6000 7.0000 -344.0009
v  120.0000 7.0000 -356.0000
v  123.6000 7.0000 -356.0000
v  195.0000 0.0000 -355.0000
v  195.0000 5.9500 -355.0000
v  195.0000 5.9500 -345.0011
v  195.0000 0.0000 -345.0011
v  200.0000 7.0000 -356.0000
v  196.4000 7.0000 -356.0000
v  200.0000 7.0000 -343.9988
v  196.4000 7.0000 -344.0009
v  125.0000 0.0000 -345.0011
v  125.0000 5.9500 -345.0011
v  125.0000 5.9500 -355.0000
v  125.0000 0.0000 -355.0000
v  200.0000 0.0000 -344.9990
v  200.0000 5.9500 -344.9990
v  200.0000 5.9500 -355.0000
v  200.0000 0.0000 -355.0000
# 48 vertices

vn 0.0000 1.0000 -0.0000
vn 0.0000 0.0000 -1.0000
vn -0.0000 0.0000 1.0000
vn -1.0000 0.0000 -0.0000
vn -0.0000 0.6897 0.7241
vn 0.0000 0.6897 -0.7241
vn 1.0000 0.0000 0.0000
vn -0.6000 0.8000 -0.0000
vn 0.6000 0.8000 0.0000
vn -0.0004 0.6895 -0.7243
vn -0.0003 0.6897 -0.7241
vn 0.0000 0.6897 0.7241
vn 0.0004 0.6897 -0.7241
vn 0.0003 0.6895 -0.7242
vn -0.0004 0.0000 -1.0000
vn 0.0000 0.0000 1.0000
vn 0.0004 0.0000 -1.0000
# 17 vertex normals

vt 0.0206 0.9864 0.0000
vt 0.0514 0.9521 0.0000
vt 0.6754 0.9521 0.0000
vt 0.7063 0.9864 0.0000
vt 0.5236 0.4559 0.0000
vt 0.5236 0.4788 0.0000
vt 0.2164 0.4788 0.0000
vt 0.2164 0.4559 0.0000
vt 0.8966 0.9721 0.0000
vt 0.8523 0.9721 0.0000
vt 0.8523 0.5810 0.0000
vt 0.8966 0.5810 0.0000
vt 0.0502 0.6163 0.0000
vt 0.0191 0.5835 0.0000
vt 0.7088 0.5835 0.0000
vt 0.6778 0.6163 0.0000
vt 0.8225 0.9746 0.0000
vt 0.7782 0.9746 0.0000
vt 0.7782 0.5836 0.0000
vt 0.8225 0.5836 0.0000
vt 0.0947 0.5334 0.0000
vt 0.0947 0.5272 0.0000
vt 0.4516 0.5272 0.0000
vt 0.4409 0.5334 0.0000
vt 0.6679 0.4015 0.0000
vt 0.0721 0.4015 0.0000
vt 0.0721 0.0291 0.0000
vt 0.6679 0.0291 0.0000
vt 0.5236 0.4828 0.0000
vt 0.2164 0.4828 0.0000
vt 0.0634 0.9436 0.0000
vt 0.6634 0.9436 0.0000
vt 0.6657 0.6273 0.0000
vt 0.0622 0.6273 0.0000
vt 0.0947 0.4923 0.0000
vt 0.4599 0.4923 0.0000
vt 0.4599 0.5272 0.0000
vt 0.3037 0.4168 0.0000
vt 0.3037 0.4443 0.0000
vt 0.2065 0.4443 0.0000
vt 0.2065 0.4168 0.0000
vt 0.0733 0.4443 0.0000
vt 0.0733 0.4168 0.0000
vt 0.1705 0.4168 0.0000
vt 0.1705 0.4443 0.0000
vt 0.0191 0.7393 0.0000
vt 0.0502 0.7393 0.0000
vt 0.0206 0.8236 0.0000
vt 0.0514 0.8236 0.0000
vt 0.9411 0.3732 0.0000
vt 0.9854 0.3732 0.0000
vt 0.9854 0.4989 0.0000
vt 0.9411 0.4989 0.0000
vt 0.9854 0.6711 0.0000
vt 0.9411 0.6711 0.0000
vt 0.9411 0.5455 0.0000
vt 0.9854 0.5455 0.0000
vt 0.7063 0.8236 0.0000
vt 0.6754 0.8236 0.0000
vt 0.7088 0.7393 0.0000
vt 0.6778 0.7393 0.0000
vt 0.9426 0.6832 0.0000
vt 0.9870 0.6832 0.0000
vt 0.9870 0.8088 0.0000
vt 0.9426 0.8088 0.0000
vt 0.9870 0.9811 0.0000
vt 0.9426 0.9811 0.0000
vt 0.9426 0.8554 0.0000
vt 0.9870 0.8554 0.0000
vt 0.4279 0.4387 0.0000
vt 0.4279 0.4130 0.0000
vt 0.5190 0.4130 0.0000
vt 0.5190 0.4387 0.0000
vt 0.6439 0.4130 0.0000
vt 0.6439 0.4387 0.0000
vt 0.5528 0.4387 0.0000
vt 0.5528 0.4130 0.0000
vt 0.0733 0.4491 0.0000
vt 0.1705 0.4491 0.0000
vt 0.3037 0.4491 0.0000
vt 0.2065 0.4491 0.0000
vt 0.6634 0.8150 0.0000
vt 0.6657 0.7503 0.0000
vt 0.0622 0.7503 0.0000
vt 0.0634 0.8150 0.0000
vt 0.4279 0.4432 0.0000
vt 0.5190 0.4432 0.0000
vt 0.6439 0.4432 0.0000
vt 0.5528 0.4432 0.0000
vt 0.0191 0.7503 0.0000
vt 0.0206 0.8150 0.0000
vt 0.7063 0.8150 0.0000
vt 0.7088 0.7503 0.0000
vt 0.9437 0.1129 0.0000
vt 0.9081 0.1129 0.0000
vt 0.9081 0.0705 0.0000
vt 0.9437 0.0705 0.0000
vt 0.9429 0.0641 0.0000
vt 0.9074 0.0641 0.0000
vt 0.9074 0.0218 0.0000
vt 0.9429 0.0218 0.0000
vt 0.8926 0.1136 0.0000
vt 0.8571 0.1136 0.0000
vt 0.8571 0.0713 0.0000
vt 0.8926 0.0713 0.0000
vt 0.8919 0.0648 0.0000
vt 0.8563 0.0648 0.0000
vt 0.8563 0.0225 0.0000
vt 0.8919 0.0225 0.0000
# 109 texture coords

g room2x7
usemtl Room
s 1
f 1/1/1 2/2/1 3/3/1 
f 3/3/1 4/4/1 1/1/1 
s off
f 5/5/2 6/6/2 7/7/2 
f 7/7/2 8/8/2 5/5/2 
f 9/9/3 10/10/3 11/11/3 
f 11/11/3 12/12/3 9/9/3 
s 1
f 13/13/1 14/14/1 15/15/1 
f 15/15/1 16/16/1 13/13/1 
s off
f 17/17/2 18/18/2 19/19/2 
f 19/19/2 20/20/2 17/17/2 
f 14/21/3 21/22/3 22/23/3 
f 22/23/3 15/24/3 14/21/3 
s 1
f 8/25/1 5/26/1 23/27/1 
f 24/28/1 8/25/1 23/27/1 
f 24/28/4 24/28/1 23/27/1 
f 24/28/4 23/27/1 23/27/4 
s off
f 1/29/2 4/30/2 7/7/2 
f 7/7/2 6/6/2 1/29/2 
f 3/3/5 2/2/5 11/31/5 
f 11/31/5 10/32/5 3/3/5 
f 13/13/6 16/16/6 19/33/6 
f 19/33/6 18/34/6 13/13/6 
f 23/35/3 24/36/3 22/37/3 
f 22/37/3 21/22/3 23/35/3 
f 23/38/4 21/39/4 25/40/4 
f 25/40/4 26/41/4 23/38/4 
f 6/42/4 5/43/4 27/44/4 
f 27/44/4 28/45/4 6/42/4 
s 1
f 29/46/1 14/14/1 13/13/1 
f 13/13/1 30/47/1 29/46/1 
f 2/2/1 1/1/1 31/48/1 
f 31/48/1 32/49/1 2/2/1 
s off
f 10/50/4 9/51/4 33/52/4 
f 33/52/4 34/53/4 10/50/4 
f 20/54/4 19/55/4 35/56/4 
f 35/56/4 36/57/4 20/54/4 
s 1
f 37/58/1 4/4/1 3/3/1 
f 3/3/1 38/59/1 37/58/1 
f 16/16/1 15/15/1 39/60/1 
f 39/60/1 40/61/1 16/16/1 
s off
f 18/62/7 17/63/7 41/64/7 
f 41/64/7 42/65/7 18/62/7 
f 12/66/7 11/67/7 43/68/7 
f 43/68/7 44/69/7 12/66/7 
f 22/70/7 24/71/7 45/72/7 
f 45/72/7 46/73/7 22/70/7 
f 8/74/7 7/75/7 47/76/7 
f 47/76/7 48/77/7 8/74/7 
f 1/78/4 6/42/4 28/45/4 
f 28/45/4 31/79/4 1/78/4 
f 21/39/4 14/80/4 29/81/4 
f 29/81/4 25/40/4 21/39/4 
f 38/59/8 3/3/8 10/32/8 
f 10/32/8 34/82/8 38/59/8 
f 19/33/8 16/16/8 40/61/8 
f 40/61/8 35/83/8 19/33/8 
f 30/47/9 13/13/9 18/34/9 
f 18/34/9 42/84/9 30/47/9 
f 11/31/9 2/2/9 32/49/9 
f 32/49/9 43/85/9 11/31/9 
f 15/86/7 22/70/7 46/73/7 
f 46/73/7 39/87/7 15/86/7 
f 7/75/7 4/88/7 37/89/7 
f 37/89/7 47/76/7 7/75/7 
f 29/46/10 30/47/10 42/84/10 
f 42/84/11 25/90/11 29/46/11 
f 32/49/5 31/48/5 28/91/5 
f 28/91/5 43/85/5 32/49/5 
f 37/58/12 38/59/12 34/82/12 
f 34/82/12 47/92/12 37/58/12 
f 40/61/13 39/60/13 46/93/13 
f 46/93/14 35/83/14 40/61/14 
f 25/94/15 42/95/15 41/96/15 
f 41/96/15 26/97/15 25/94/15 
f 43/98/3 28/99/3 27/100/3 
f 27/100/3 44/101/3 43/98/3 
f 47/102/16 34/103/16 33/104/16 
f 33/104/16 48/105/16 47/102/16 
f 35/106/17 46/107/17 45/108/17 
f 45/108/17 36/109/17 35/106/17 
# 80 faces

#
# object collision
#

v  120.0000 7.0000 -370.0000
v  200.0000 7.0000 -370.0000
v  200.0000 7.0000 -375.0000
v  120.0000 7.0000 -375.0000
v  120.0000 0.0000 -375.0000
v  120.0000 0.0000 -370.0000
v  200.0000 0.0000 -370.0000
v  200.0000 0.0000 -375.0000
# 8 vertices

vn 0.0000 1.0000 -0.0000
vn -1.0000 0.0000 -0.0000
vn 0.0000 0.0000 1.0000
vn 1.0000 0.0000 -0.0000
vn -0.0000 0.0000 -1.0000
# 5 vertex normals

vt 0.0000 0.0000 0.0000
vt 1.0000 0.0000 0.0000
vt 1.0000 1.0000 0.0000
vt 0.0000 1.0000 0.0000
# 4 texture coords

g collision
usemtl Room
s 1
f 49/110/18 50/111/18 51/112/18 
f 51/112/18 52/113/18 49/110/18 
s off
f 53/113/19 54/110/19 49/110/19 
f 49/110/19 52/113/19 53/113/19 
f 54/110/20 55/111/20 50/111/20 
f 50/111/20 49/110/20 54/110/20 
f 55/111/21 56/112/21 51/112/21 
f 51/112/21 50/111/21 55/111/21 
f 56/112/22 53/113/22 52/113/22 
f 52/113/22 51/112/22 56/112/22 
# 10 faces

#
# object collision
#

v  120.0000 7.0000 -325.0000
v  200.0000 7.0000 -325.0000
v  200.0000 7.0000 -330.0000
v  120.0000 7.0000 -330.0000
v  120.0000 -0.0000 -330.0000
v  120.0000 -0.0000 -325.0000
v  200.0000 -0.0000 -325.0000
v  200.0000 -0.0000 -330.0000
# 8 vertices

vn 0.0000 1.0000 -0.0000
vn -1.0000 0.0000 -0.0000
vn 0.0000 0.0000 1.0000
vn 1.0000 0.0000 -0.0000
vn -0.0000 0.0000 -1.0000
# 5 vertex normals

vt 0.0000 0.0000 0.0000
vt 1.0000 0.0000 0.0000
vt 1.0000 1.0000 0.0000
vt 0.0000 1.0000 0.0000
# 4 texture coords

g collision
usemtl Room
s 1
f 57/114/23 58/115/23 59/116/23 
f 59/116/23 60/117/23 57/114/23 
s off
f 61/117/24 62/114/24 57/114/24 
f 57/114/24 60/117/24 61/117/24 
f 62/114/25 63/115/25 58/115/25 
f 58/115/25 57/114/25 62/114/25 
f 63/115/26 64/116/26 59/116/26 
f 59/116/26 58/115/26 63/115/26 
f 64/116/27 61/117/27 60/117/27 
f 60/117/27 59/116/27 64/116/27 
# 10 faces

#
# object collision
#

v  195.0000 7.0000 -355.0000
v  200.0000 7.0000 -355.0000
v  200.0000 7.0000 -375.0000
v  195.0000 7.0000 -375.0000
v  195.0000 -0.0000 -375.0000
v  195.0000 -0.0000 -355.0000
v  200.0000 -0.0000 -355.0000
v  200.0000 -0.0000 -375.0000
# 8 vertices

vn 0.0000 1.0000 -0.0000
vn -1.0000 0.0000 -0.0000
vn 0.0000 0.0000 1.0000
vn 1.0000 0.0000 -0.0000
vn 0.0000 0.0000 -1.0000
# 5 vertex normals

vt 0.0000 0.0000 0.0000
vt 1.0000 0.0000 0.0000
vt 1.0000 1.0000 0.0000
vt 0.0000 1.0000 0.0000
# 4 texture coords

g collision
usemtl Room
s 1
f 65/118/28 66/119/28 67/120/28 
f 67/120/28 68/121/28 65/118/28 
s off
f 69/121/29 70/118/29 65/118/29 
f 65/118/29 68/121/29 69/121/29 
f 70/118/30 71/119/30 66/119/30 
f 66/119/30 65/118/30 70/118/30 
f 71/119/31 72/120/31 67/120/31 
f 67/120/31 66/119/31 71/119/31 
f 72/120/32 69/121/32 68/121/32 
f 68/121/32 67/120/32 72/120/32 
# 10 faces

#
# object collision
#

v  195.0000 7.0000 -325.0000
v  200.0000 7.0000 -325.0000
v  200.0000 7.0000 -345.0000
v  195.0000 7.0000 -345.0000
v  195.0000 -0.0000 -345.0000
v  195.0000 -0.0000 -325.0000
v  200.0000 -0.0000 -325.0000
v  200.0000 -0.0000 -345.0000
# 8 vertices

vn 0.0000 1.0000 -0.0000
vn -1.0000 0.0000 -0.0000
vn 0.0000 0.0000 1.0000
vn 1.0000 0.0000 -0.0000
vn 0.0000 0.0000 -1.0000
# 5 vertex normals

vt 0.0000 0.0000 0.0000
vt 1.0000 0.0000 0.0000
vt 1.0000 1.0000 0.0000
vt 0.0000 1.0000 0.0000
# 4 texture coords

g collision
usemtl Room
s 1
f 73/122/33 74/123/33 75/124/33 
f 75/124/33 76/125/33 73/122/33 
s off
f 77/125/34 78/122/34 73/122/34 
f 73/122/34 76/125/34 77/125/34 
f 78/122/35 79/123/35 74/123/35 
f 74/123/35 73/122/35 78/122/35 
f 79/123/36 80/124/36 75/124/36 
f 75/124/36 74/123/36 79/123/36 
f 80/124/37 77/125/37 76/125/37 
f 76/125/37 75/124/37 80/124/37 
# 10 faces

#
# object collision
#

v  120.0000 7.0000 -355.0000
v  125.0000 7.0000 -355.0000
v  125.0000 7.0000 -375.0000
v  120.0000 7.0000 -375.0000
v  120.0000 -0.0000 -375.0000
v  120.0000 -0.0000 -355.0000
v  125.0000 -0.0000 -355.0000
v  125.0000 -0.0000 -375.0000
# 8 vertices

vn 0.0000 1.0000 -0.0000
vn -1.0000 0.0000 -0.0000
vn 0.0000 0.0000 1.0000
vn 1.0000 0.0000 -0.0000
vn 0.0000 0.0000 -1.0000
# 5 vertex normals

vt 0.0000 0.0000 0.0000
vt 1.0000 0.0000 0.0000
vt 1.0000 1.0000 0.0000
vt 0.0000 1.0000 0.0000
# 4 texture coords

g collision
usemtl Room
s 1
f 81/126/38 82/127/38 83/128/38 
f 83/128/38 84/129/38 81/126/38 
s off
f 85/129/39 86/126/39 81/126/39 
f 81/126/39 84/129/39 85/129/39 
f 86/126/40 87/127/40 82/127/40 
f 82/127/40 81/126/40 86/126/40 
f 87/127/41 88/128/41 83/128/41 
f 83/128/41 82/127/41 87/127/41 
f 88/128/42 85/129/42 84/129/42 
f 84/129/42 83/128/42 88/128/42 
# 10 faces

#
# object collision
#

v  120.0000 7.0000 -325.0000
v  125.0000 7.0000 -325.0000
v  125.0000 7.0000 -345.0000
v  120.0000 7.0000 -345.0000
v  120.0000 -0.0000 -345.0000
v  120.0000 -0.0000 -325.0000
v  125.0000 -0.0000 -325.0000
v  125.0000 -0.0000 -345.0000
# 8 vertices

vn 0.0000 1.0000 -0.0000
vn -1.0000 0.0000 -0.0000
vn 0.0000 0.0000 1.0000
vn 1.0000 0.0000 -0.0000
vn 0.0000 0.0000 -1.0000
# 5 vertex normals

vt 0.0000 0.0000 0.0000
vt 1.0000 0.0000 0.0000
vt 1.0000 1.0000 0.0000
vt 0.0000 1.0000 0.0000
# 4 texture coords

g collision
usemtl Room
s 1
f 89/130/43 90/131/43 91/132/43 
f 91/132/43 92/133/43 89/130/43 
s off
f 93/133/44 94/130/44 89/130/44 
f 89/130/44 92/133/44 93/133/44 
f 94/130/45 95/131/45 90/131/45 
f 90/131/45 89/130/45 94/130/45 
f 95/131/46 96/132/46 91/132/46 
f 91/132/46 90/131/46 95/131/46 
f 96/132/47 93/133/47 92/133/47 
f 92/133/47 91/132/47 96/132/47 
# 10 faces

