# 3ds Max Wavefront OBJ Exporter v0.97b - (c)2007 guruware
# File Created: 19.05.2019 23:00:08

mtllib Room28.mtl

#
# object room3x5
#

v  200.0000 7.0000 -225.0000
v  203.6000 7.0000 -229.0000
v  276.4000 7.0000 -229.0000
v  280.0000 7.0000 -225.0000
v  200.0000 0.0000 -225.0000
v  200.0000 5.9500 -225.0000
v  280.0000 5.9500 -225.0000
v  280.0000 0.0000 -225.0000
v  275.0000 0.0000 -230.0000
v  275.0000 5.9500 -230.0000
v  205.0000 5.9500 -230.0000
v  205.0000 0.0000 -230.0000
v  203.6000 7.0000 -271.0000
v  200.0000 7.0000 -275.0000
v  233.9500 7.0000 -275.0000
v  233.9500 7.0000 -271.0000
v  276.4000 7.0000 -271.0000
v  246.0500 7.0000 -271.0000
v  246.0500 7.0000 -275.0000
v  280.0000 7.0000 -275.0000
v  280.0000 5.9500 -275.0000
v  245.0000 5.9500 -275.0000
v  245.0000 0.0000 -275.0000
v  280.0000 0.0000 -275.0000
v  245.0000 5.9500 -270.0000
v  245.0000 0.0000 -270.0000
v  275.0000 5.9500 -270.0000
v  275.0000 0.0000 -270.0000
v  205.0000 5.9500 -270.0000
v  235.0000 5.9500 -270.0000
v  235.0000 0.0000 -270.0000
v  205.0000 0.0000 -270.0000
v  235.0000 5.9500 -275.0000
v  235.0000 0.0000 -275.0000
v  200.0000 5.9500 -275.0000
v  200.0000 0.0000 -275.0000
v  200.0000 5.9500 -255.0001
v  200.0000 0.0000 -255.0001
v  200.0000 0.0000 -245.0000
v  200.0000 5.9500 -245.0000
v  200.0000 7.0000 -256.0001
v  203.6000 7.0000 -256.0000
v  200.0000 7.0000 -244.0000
v  203.6000 7.0000 -244.0000
v  205.0000 0.0000 -255.0000
v  205.0000 5.9500 -255.0000
v  205.0000 5.9500 -245.0000
v  205.0000 0.0000 -245.0000
# 48 vertices

vn 0.0000 1.0000 -0.0000
vn 0.0000 0.0000 1.0000
vn 0.0000 0.0000 -1.0000
vn -1.0000 0.0000 -0.0000
vn 1.0000 0.0000 -0.0000
vn 0.0000 0.6897 -0.7241
vn -0.7071 0.7071 -0.0000
vn 0.0000 0.6897 0.7241
vn -0.6000 0.8000 -0.0000
vn 0.7071 0.7071 -0.0000
vn 0.6000 0.8000 -0.0000
vn -0.0000 0.6897 0.7241
vn -0.0000 0.6897 -0.7241
vn -0.0000 0.0000 1.0000
vn -0.0000 0.0000 -1.0000
# 15 vertex normals

vt 0.0158 0.9835 0.0000
vt 0.0468 0.9490 0.0000
vt 0.6746 0.9490 0.0000
vt 0.7056 0.9835 0.0000
vt 0.5236 0.4559 0.0000
vt 0.5236 0.4788 0.0000
vt 0.2164 0.4788 0.0000
vt 0.2164 0.4559 0.0000
vt 0.8966 0.9721 0.0000
vt 0.8523 0.9721 0.0000
vt 0.8523 0.5810 0.0000
vt 0.8966 0.5810 0.0000
vt 0.0511 0.5885 0.0000
vt 0.0182 0.5519 0.0000
vt 0.3282 0.5519 0.0000
vt 0.3282 0.5885 0.0000
vt 0.6746 0.5868 0.0000
vt 0.4129 0.5868 0.0000
vt 0.4129 0.5523 0.0000
vt 0.7056 0.5523 0.0000
vt 0.6227 0.5288 0.0000
vt 0.4288 0.5288 0.0000
vt 0.4288 0.4959 0.0000
vt 0.6227 0.4959 0.0000
vt 0.9568 0.0741 0.0000
vt 0.9878 0.0741 0.0000
vt 0.9878 0.1110 0.0000
vt 0.9568 0.1110 0.0000
vt 0.7788 0.5977 0.0000
vt 0.7788 0.3742 0.0000
vt 0.8231 0.3742 0.0000
vt 0.8231 0.5977 0.0000
vt 0.9411 0.6711 0.0000
vt 0.9411 0.3732 0.0000
vt 0.9854 0.3732 0.0000
vt 0.9854 0.6711 0.0000
vt 0.7782 0.9746 0.0000
vt 0.7782 0.7512 0.0000
vt 0.8225 0.7512 0.0000
vt 0.8225 0.9746 0.0000
vt 0.9559 0.0254 0.0000
vt 0.9869 0.0254 0.0000
vt 0.9869 0.0624 0.0000
vt 0.9559 0.0624 0.0000
vt 0.0947 0.5334 0.0000
vt 0.0947 0.5272 0.0000
vt 0.3001 0.5272 0.0000
vt 0.2940 0.5334 0.0000
vt 0.6679 0.4015 0.0000
vt 0.0721 0.4015 0.0000
vt 0.0721 0.0291 0.0000
vt 0.6679 0.0291 0.0000
vt 0.6439 0.4387 0.0000
vt 0.4279 0.4387 0.0000
vt 0.4279 0.4130 0.0000
vt 0.6439 0.4130 0.0000
vt 0.5236 0.4828 0.0000
vt 0.2164 0.4828 0.0000
vt 0.0589 0.9404 0.0000
vt 0.6625 0.9404 0.0000
vt 0.6227 0.5346 0.0000
vt 0.4346 0.5346 0.0000
vt 0.4038 0.5954 0.0000
vt 0.4038 0.5523 0.0000
vt 0.6625 0.5954 0.0000
vt 0.3378 0.5976 0.0000
vt 0.0639 0.5976 0.0000
vt 0.3378 0.5519 0.0000
vt 0.0947 0.4923 0.0000
vt 0.3001 0.4923 0.0000
vt 0.6439 0.4432 0.0000
vt 0.4279 0.4432 0.0000
vt 0.3037 0.4168 0.0000
vt 0.3037 0.4443 0.0000
vt 0.2109 0.4443 0.0000
vt 0.2109 0.4168 0.0000
vt 0.0733 0.4443 0.0000
vt 0.0733 0.4168 0.0000
vt 0.1661 0.4168 0.0000
vt 0.1661 0.4443 0.0000
vt 0.0182 0.7254 0.0000
vt 0.0511 0.7254 0.0000
vt 0.0158 0.8196 0.0000
vt 0.0468 0.8196 0.0000
vt 0.9426 0.6832 0.0000
vt 0.9870 0.6832 0.0000
vt 0.9870 0.8032 0.0000
vt 0.9426 0.8032 0.0000
vt 0.9870 0.9811 0.0000
vt 0.9426 0.9811 0.0000
vt 0.9426 0.8611 0.0000
vt 0.9870 0.8611 0.0000
vt 0.0733 0.4491 0.0000
vt 0.1661 0.4491 0.0000
vt 0.3037 0.4491 0.0000
vt 0.2109 0.4491 0.0000
vt 0.0639 0.7345 0.0000
vt 0.0589 0.8110 0.0000
vt 0.0182 0.7345 0.0000
vt 0.0158 0.8110 0.0000
vt 0.9343 0.0630 0.0000
vt 0.9007 0.0630 0.0000
vt 0.9007 0.0231 0.0000
vt 0.9343 0.0231 0.0000
vt 0.9343 0.1140 0.0000
vt 0.9007 0.1140 0.0000
vt 0.9007 0.0741 0.0000
vt 0.9343 0.0741 0.0000
# 108 texture coords

g room3x5
usemtl Room
s 1
f 3/3/1 2/2/1 1/1/1 
f 1/1/1 4/4/1 3/3/1 
s off
f 7/7/2 6/6/2 5/5/2 
f 5/5/2 8/8/2 7/7/2 
f 11/11/3 10/10/3 9/9/3 
f 9/9/3 12/12/3 11/11/3 
s 1
f 15/15/1 14/14/1 13/13/1 
f 13/13/1 16/16/1 15/15/1 
f 19/19/1 18/18/1 17/17/1 
f 17/17/1 20/20/1 19/19/1 
s off
f 23/23/3 22/22/3 21/21/3 
f 21/21/3 24/24/3 23/23/3 
f 26/27/4 25/26/4 22/25/4 
f 22/25/4 23/28/4 26/27/4 
f 28/31/2 27/30/2 25/29/2 
f 25/29/2 26/32/2 28/31/2 
f 9/35/4 10/34/4 27/33/4 
f 27/33/4 28/36/4 9/35/4 
f 31/39/2 30/38/2 29/37/2 
f 29/37/2 32/40/2 31/39/2 
f 34/43/5 33/42/5 30/41/5 
f 30/41/5 31/44/5 34/43/5 
f 33/47/3 35/46/3 14/45/3 
f 14/45/3 15/48/3 33/47/3 
s 1
f 3/3/1 4/4/1 20/20/1 
f 20/20/1 17/17/1 3/3/1 
f 36/51/1 5/50/1 8/49/1 
f 36/51/1 8/49/1 24/52/1 
f 36/51/1 24/52/1 24/52/4 
f 36/51/4 36/51/1 24/52/4 
s off
f 24/55/5 21/54/5 7/53/5 
f 7/53/5 8/56/5 24/55/5 
f 7/7/2 4/58/2 1/57/2 
f 1/57/2 6/6/2 7/7/2 
f 11/59/6 2/2/6 3/3/6 
f 3/3/6 10/60/6 11/59/6 
f 22/22/3 19/62/3 20/61/3 
f 20/61/3 21/21/3 22/22/3 
f 25/63/7 18/18/7 19/19/7 
f 19/19/7 22/64/7 25/63/7 
f 27/65/8 17/17/8 18/18/8 
f 18/18/8 25/63/8 27/65/8 
f 10/60/9 3/3/9 17/17/9 
f 17/17/9 27/65/9 10/60/9 
f 30/66/8 16/16/8 13/13/8 
f 13/13/8 29/67/8 30/66/8 
f 33/68/10 15/15/10 16/16/10 
f 16/16/10 30/66/10 33/68/10 
f 33/47/3 34/70/3 36/69/3 
f 36/69/3 35/46/3 33/47/3 
f 21/54/5 20/72/5 4/71/5 
f 4/71/5 7/53/5 21/54/5 
f 37/75/4 35/74/4 36/73/4 
f 36/73/4 38/76/4 37/75/4 
f 39/79/4 5/78/4 6/77/4 
f 6/77/4 40/80/4 39/79/4 
s 1
f 13/13/1 14/14/1 41/81/1 
f 41/81/1 42/82/1 13/13/1 
f 43/83/1 1/1/1 2/2/1 
f 2/2/1 44/84/1 43/83/1 
s off
f 45/87/5 32/86/5 29/85/5 
f 29/85/5 46/88/5 45/87/5 
f 47/91/5 11/90/5 12/89/5 
f 12/89/5 48/92/5 47/91/5 
f 40/80/4 6/77/4 1/93/4 
f 1/93/4 43/94/4 40/80/4 
f 41/96/4 14/95/4 35/74/4 
f 35/74/4 37/75/4 41/96/4 
f 29/67/11 13/13/11 42/82/11 
f 42/82/11 46/97/11 29/67/11 
f 44/84/11 2/2/11 11/59/11 
f 11/59/11 47/98/11 44/84/11 
f 46/97/12 42/82/12 41/81/12 
f 41/81/12 37/99/12 46/97/12 
f 40/100/13 43/83/13 44/84/13 
f 44/84/13 47/98/13 40/100/13 
f 45/103/14 46/102/14 37/101/14 
f 37/101/14 38/104/14 45/103/14 
f 39/107/15 40/106/15 47/105/15 
f 47/105/15 48/108/15 39/107/15 
# 80 faces

#
# object collision
#

v  245.0000 7.0000 -270.0000
v  280.0000 7.0000 -270.0000
v  280.0000 7.0000 -275.0000
v  245.0000 7.0000 -275.0000
v  245.0000 0.0000 -275.0000
v  245.0000 0.0000 -270.0000
v  280.0000 0.0000 -270.0000
v  280.0000 0.0000 -275.0000
# 8 vertices

vn 0.0000 1.0000 -0.0000
vn -1.0000 0.0000 -0.0000
vn 0.0000 0.0000 1.0000
vn 1.0000 0.0000 -0.0000
vn 0.0000 0.0000 -1.0000
# 5 vertex normals

vt 0.0000 0.0000 0.0000
vt 1.0000 0.0000 0.0000
vt 1.0000 1.0000 0.0000
vt 0.0000 1.0000 0.0000
# 4 texture coords

g collision
usemtl Room
s 1
f 49/109/16 50/110/16 51/111/16 
f 51/111/16 52/112/16 49/109/16 
s off
f 53/112/17 54/109/17 49/109/17 
f 49/109/17 52/112/17 53/112/17 
f 54/109/18 55/110/18 50/110/18 
f 50/110/18 49/109/18 54/109/18 
f 55/110/19 56/111/19 51/111/19 
f 51/111/19 50/110/19 55/110/19 
f 56/111/20 53/112/20 52/112/20 
f 52/112/20 51/111/20 56/111/20 
# 10 faces

#
# object collision
#

v  275.0000 7.0000 -225.0000
v  280.0000 7.0000 -225.0000
v  280.0000 7.0000 -275.0000
v  275.0000 7.0000 -275.0000
v  275.0000 -0.0000 -275.0000
v  275.0000 -0.0000 -225.0000
v  280.0000 -0.0000 -225.0000
v  280.0000 -0.0000 -275.0000
# 8 vertices

vn 0.0000 1.0000 -0.0000
vn -1.0000 0.0000 -0.0000
vn 0.0000 0.0000 1.0000
vn 1.0000 0.0000 -0.0000
vn 0.0000 0.0000 -1.0000
# 5 vertex normals

vt 0.0000 0.0000 0.0000
vt 1.0000 0.0000 0.0000
vt 1.0000 1.0000 0.0000
vt 0.0000 1.0000 0.0000
# 4 texture coords

g collision
usemtl Room
s 1
f 57/113/21 58/114/21 59/115/21 
f 59/115/21 60/116/21 57/113/21 
s off
f 61/116/22 62/113/22 57/113/22 
f 57/113/22 60/116/22 61/116/22 
f 62/113/23 63/114/23 58/114/23 
f 58/114/23 57/113/23 62/113/23 
f 63/114/24 64/115/24 59/115/24 
f 59/115/24 58/114/24 63/114/24 
f 64/115/25 61/116/25 60/116/25 
f 60/116/25 59/115/25 64/115/25 
# 10 faces

#
# object collision
#

v  200.0000 7.0000 -255.0000
v  205.0000 7.0000 -255.0000
v  205.0000 7.0000 -275.0000
v  200.0000 7.0000 -275.0000
v  200.0000 -0.0000 -275.0000
v  200.0000 -0.0000 -255.0000
v  205.0000 -0.0000 -255.0000
v  205.0000 -0.0000 -275.0000
# 8 vertices

vn 0.0000 1.0000 -0.0000
vn -1.0000 0.0000 -0.0000
vn 0.0000 0.0000 1.0000
vn 1.0000 0.0000 -0.0000
vn 0.0000 0.0000 -1.0000
# 5 vertex normals

vt 0.0000 0.0000 0.0000
vt 1.0000 0.0000 0.0000
vt 1.0000 1.0000 0.0000
vt 0.0000 1.0000 0.0000
# 4 texture coords

g collision
usemtl Room
s 1
f 65/117/26 66/118/26 67/119/26 
f 67/119/26 68/120/26 65/117/26 
s off
f 69/120/27 70/117/27 65/117/27 
f 65/117/27 68/120/27 69/120/27 
f 70/117/28 71/118/28 66/118/28 
f 66/118/28 65/117/28 70/117/28 
f 71/118/29 72/119/29 67/119/29 
f 67/119/29 66/118/29 71/118/29 
f 72/119/30 69/120/30 68/120/30 
f 68/120/30 67/119/30 72/119/30 
# 10 faces

#
# object collision
#

v  200.0000 7.0000 -225.0000
v  205.0000 7.0000 -225.0000
v  205.0000 7.0000 -245.0000
v  200.0000 7.0000 -245.0000
v  200.0000 -0.0000 -245.0000
v  200.0000 -0.0000 -225.0000
v  205.0000 -0.0000 -225.0000
v  205.0000 -0.0000 -245.0000
# 8 vertices

vn 0.0000 1.0000 -0.0000
vn -1.0000 0.0000 -0.0000
vn 0.0000 0.0000 1.0000
vn 1.0000 0.0000 -0.0000
vn 0.0000 0.0000 -1.0000
# 5 vertex normals

vt 0.0000 0.0000 0.0000
vt 1.0000 0.0000 0.0000
vt 1.0000 1.0000 0.0000
vt 0.0000 1.0000 0.0000
# 4 texture coords

g collision
usemtl Room
s 1
f 73/121/31 74/122/31 75/123/31 
f 75/123/31 76/124/31 73/121/31 
s off
f 77/124/32 78/121/32 73/121/32 
f 73/121/32 76/124/32 77/124/32 
f 78/121/33 79/122/33 74/122/33 
f 74/122/33 73/121/33 78/121/33 
f 79/122/34 80/123/34 75/123/34 
f 75/123/34 74/122/34 79/122/34 
f 80/123/35 77/124/35 76/124/35 
f 76/124/35 75/123/35 80/123/35 
# 10 faces

#
# object collision
#

v  200.0000 7.0000 -270.0000
v  235.0000 7.0000 -270.0000
v  235.0000 7.0000 -275.0000
v  200.0000 7.0000 -275.0000
v  200.0000 0.0000 -275.0000
v  200.0000 0.0000 -270.0000
v  235.0000 0.0000 -270.0000
v  235.0000 0.0000 -275.0000
# 8 vertices

vn 0.0000 1.0000 -0.0000
vn -1.0000 0.0000 -0.0000
vn 0.0000 0.0000 1.0000
vn 1.0000 0.0000 -0.0000
vn 0.0000 0.0000 -1.0000
# 5 vertex normals

vt 0.0000 0.0000 0.0000
vt 1.0000 0.0000 0.0000
vt 1.0000 1.0000 0.0000
vt 0.0000 1.0000 0.0000
# 4 texture coords

g collision
usemtl Room
s 1
f 81/125/36 82/126/36 83/127/36 
f 83/127/36 84/128/36 81/125/36 
s off
f 85/128/37 86/125/37 81/125/37 
f 81/125/37 84/128/37 85/128/37 
f 86/125/38 87/126/38 82/126/38 
f 82/126/38 81/125/38 86/125/38 
f 87/126/39 88/127/39 83/127/39 
f 83/127/39 82/126/39 87/126/39 
f 88/127/40 85/128/40 84/128/40 
f 84/128/40 83/127/40 88/127/40 
# 10 faces

#
# object collision
#

v  200.0000 7.0000 -225.0000
v  280.0000 7.0000 -225.0000
v  280.0000 7.0000 -230.0000
v  200.0000 7.0000 -230.0000
v  200.0000 -0.0000 -230.0000
v  200.0000 -0.0000 -225.0000
v  280.0000 -0.0000 -225.0000
v  280.0000 -0.0000 -230.0000
# 8 vertices

vn 0.0000 1.0000 -0.0000
vn -1.0000 0.0000 -0.0000
vn 0.0000 0.0000 1.0000
vn 1.0000 0.0000 -0.0000
vn -0.0000 0.0000 -1.0000
# 5 vertex normals

vt 0.0000 0.0000 0.0000
vt 1.0000 0.0000 0.0000
vt 1.0000 1.0000 0.0000
vt 0.0000 1.0000 0.0000
# 4 texture coords

g collision
usemtl Room
s 1
f 89/129/41 90/130/41 91/131/41 
f 91/131/41 92/132/41 89/129/41 
s off
f 93/132/42 94/129/42 89/129/42 
f 89/129/42 92/132/42 93/132/42 
f 94/129/43 95/130/43 90/130/43 
f 90/130/43 89/129/43 94/129/43 
f 95/130/44 96/131/44 91/131/44 
f 91/131/44 90/130/44 95/130/44 
f 96/131/45 93/132/45 92/132/45 
f 92/132/45 91/131/45 96/131/45 
# 10 faces

