# 3ds Max Wavefront OBJ Exporter v0.97b - (c)2007 guruware
# File Created: 19.05.2019 23:04:57

mtllib Room3x7.mtl

#
# object room3x7
#

v  200.0000 7.0000 -375.0000
v  203.6000 7.0000 -371.0000
v  276.4000 7.0000 -371.0000
v  280.0000 7.0000 -375.0000
v  200.0000 0.0000 -375.0000
v  200.0000 5.9500 -375.0000
v  280.0000 5.9500 -375.0000
v  280.0000 0.0000 -375.0000
v  275.0000 0.0000 -370.0000
v  275.0000 5.9500 -370.0000
v  205.0000 5.9500 -370.0000
v  205.0000 0.0000 -370.0000
v  203.6000 7.0000 -329.0000
v  200.0000 7.0000 -325.0000
v  233.9500 7.0000 -325.0000
v  233.9500 7.0000 -329.0000
v  276.4000 7.0000 -329.0000
v  246.0500 7.0000 -329.0000
v  246.0500 7.0000 -325.0000
v  280.0000 7.0000 -325.0000
v  280.0000 5.9500 -325.0000
v  245.0000 5.9500 -325.0000
v  245.0000 0.0000 -325.0000
v  280.0000 0.0000 -325.0000
v  245.0000 5.9500 -330.0000
v  245.0000 0.0000 -330.0000
v  275.0000 5.9500 -330.0000
v  275.0000 0.0000 -330.0000
v  205.0000 5.9500 -330.0000
v  235.0000 5.9500 -330.0000
v  235.0000 0.0000 -330.0000
v  205.0000 0.0000 -330.0000
v  235.0000 5.9500 -325.0000
v  235.0000 0.0000 -325.0000
v  200.0000 5.9500 -325.0000
v  200.0000 0.0000 -325.0000
v  200.0000 5.9500 -344.9999
v  200.0000 0.0000 -344.9999
v  200.0000 0.0000 -355.0000
v  200.0000 5.9500 -355.0000
v  200.0000 7.0000 -343.9999
v  203.6000 7.0000 -344.0000
v  200.0000 7.0000 -356.0000
v  203.6000 7.0000 -356.0000
v  205.0000 0.0000 -345.0000
v  205.0000 5.9500 -345.0000
v  205.0000 5.9500 -354.9999
v  205.0000 0.0000 -354.9999
# 48 vertices

vn 0.0000 1.0000 -0.0000
vn -0.0000 0.0000 -1.0000
vn 0.0000 0.0000 1.0000
vn -1.0000 0.0000 0.0000
vn 1.0000 0.0000 -0.0000
vn 0.0000 0.6897 0.7241
vn -0.7071 0.7071 0.0000
vn -0.0000 0.6897 -0.7241
vn -0.6000 0.8000 0.0000
vn 0.7071 0.7071 -0.0000
vn 0.6000 0.8000 -0.0000
vn -0.0000 0.6897 0.7241
vn -0.0000 0.0000 1.0000
# 13 vertex normals

vt 0.0158 0.9835 0.0000
vt 0.0468 0.9490 0.0000
vt 0.6746 0.9490 0.0000
vt 0.7056 0.9835 0.0000
vt 0.5236 0.4559 0.0000
vt 0.5236 0.4788 0.0000
vt 0.2164 0.4788 0.0000
vt 0.2164 0.4559 0.0000
vt 0.8966 0.9721 0.0000
vt 0.8523 0.9721 0.0000
vt 0.8523 0.5810 0.0000
vt 0.8966 0.5810 0.0000
vt 0.0511 0.5885 0.0000
vt 0.0182 0.5519 0.0000
vt 0.3282 0.5519 0.0000
vt 0.3282 0.5885 0.0000
vt 0.6746 0.5868 0.0000
vt 0.4129 0.5868 0.0000
vt 0.4129 0.5523 0.0000
vt 0.7056 0.5523 0.0000
vt 0.6227 0.5288 0.0000
vt 0.4288 0.5288 0.0000
vt 0.4288 0.4959 0.0000
vt 0.6227 0.4959 0.0000
vt 0.9568 0.0741 0.0000
vt 0.9878 0.0741 0.0000
vt 0.9878 0.1110 0.0000
vt 0.9568 0.1110 0.0000
vt 0.7788 0.5977 0.0000
vt 0.7788 0.3742 0.0000
vt 0.8231 0.3742 0.0000
vt 0.8231 0.5977 0.0000
vt 0.9411 0.6711 0.0000
vt 0.9411 0.3732 0.0000
vt 0.9854 0.3732 0.0000
vt 0.9854 0.6711 0.0000
vt 0.7782 0.9746 0.0000
vt 0.7782 0.7512 0.0000
vt 0.8225 0.7512 0.0000
vt 0.8225 0.9746 0.0000
vt 0.9559 0.0254 0.0000
vt 0.9869 0.0254 0.0000
vt 0.9869 0.0624 0.0000
vt 0.9559 0.0624 0.0000
vt 0.0947 0.5334 0.0000
vt 0.0947 0.5272 0.0000
vt 0.3001 0.5272 0.0000
vt 0.2940 0.5334 0.0000
vt 0.6679 0.4015 0.0000
vt 0.0721 0.4015 0.0000
vt 0.0721 0.0291 0.0000
vt 0.6679 0.0291 0.0000
vt 0.6439 0.4387 0.0000
vt 0.4279 0.4387 0.0000
vt 0.4279 0.4130 0.0000
vt 0.6439 0.4130 0.0000
vt 0.5236 0.4828 0.0000
vt 0.2164 0.4828 0.0000
vt 0.0589 0.9404 0.0000
vt 0.6625 0.9404 0.0000
vt 0.6227 0.5346 0.0000
vt 0.4346 0.5346 0.0000
vt 0.4038 0.5954 0.0000
vt 0.4038 0.5523 0.0000
vt 0.6625 0.5954 0.0000
vt 0.3378 0.5976 0.0000
vt 0.0639 0.5976 0.0000
vt 0.3378 0.5519 0.0000
vt 0.0947 0.4923 0.0000
vt 0.3001 0.4923 0.0000
vt 0.6439 0.4432 0.0000
vt 0.4279 0.4432 0.0000
vt 0.3037 0.4168 0.0000
vt 0.3037 0.4443 0.0000
vt 0.2109 0.4443 0.0000
vt 0.2109 0.4168 0.0000
vt 0.0733 0.4443 0.0000
vt 0.0733 0.4168 0.0000
vt 0.1661 0.4168 0.0000
vt 0.1661 0.4443 0.0000
vt 0.0182 0.7254 0.0000
vt 0.0511 0.7254 0.0000
vt 0.0158 0.8196 0.0000
vt 0.0468 0.8196 0.0000
vt 0.9426 0.6832 0.0000
vt 0.9870 0.6832 0.0000
vt 0.9870 0.8032 0.0000
vt 0.9426 0.8032 0.0000
vt 0.9870 0.9811 0.0000
vt 0.9426 0.9811 0.0000
vt 0.9426 0.8611 0.0000
vt 0.9870 0.8611 0.0000
vt 0.0733 0.4491 0.0000
vt 0.1661 0.4491 0.0000
vt 0.3037 0.4491 0.0000
vt 0.2109 0.4491 0.0000
vt 0.0639 0.7345 0.0000
vt 0.0589 0.8110 0.0000
vt 0.0182 0.7345 0.0000
vt 0.0158 0.8110 0.0000
vt 0.9343 0.0630 0.0000
vt 0.9007 0.0630 0.0000
vt 0.9007 0.0231 0.0000
vt 0.9343 0.0231 0.0000
vt 0.9343 0.1140 0.0000
vt 0.9007 0.1140 0.0000
vt 0.9007 0.0741 0.0000
vt 0.9343 0.0741 0.0000
# 108 texture coords

g room3x7
usemtl Room
s 1
f 1/1/1 2/2/1 3/3/1 
f 3/3/1 4/4/1 1/1/1 
s off
f 5/5/2 6/6/2 7/7/2 
f 7/7/2 8/8/2 5/5/2 
f 9/9/3 10/10/3 11/11/3 
f 11/11/3 12/12/3 9/9/3 
s 1
f 13/13/1 14/14/1 15/15/1 
f 15/15/1 16/16/1 13/13/1 
f 17/17/1 18/18/1 19/19/1 
f 19/19/1 20/20/1 17/17/1 
s off
f 21/21/3 22/22/3 23/23/3 
f 23/23/3 24/24/3 21/21/3 
f 22/25/4 25/26/4 26/27/4 
f 26/27/4 23/28/4 22/25/4 
f 25/29/2 27/30/2 28/31/2 
f 28/31/2 26/32/2 25/29/2 
f 27/33/4 10/34/4 9/35/4 
f 9/35/4 28/36/4 27/33/4 
f 29/37/2 30/38/2 31/39/2 
f 31/39/2 32/40/2 29/37/2 
f 30/41/5 33/42/5 34/43/5 
f 34/43/5 31/44/5 30/41/5 
f 14/45/3 35/46/3 33/47/3 
f 33/47/3 15/48/3 14/45/3 
s 1
f 20/20/1 4/4/1 3/3/1 
f 3/3/1 17/17/1 20/20/1 
f 8/49/1 5/50/1 36/51/1 
f 24/52/1 8/49/1 36/51/1 
f 24/52/4 24/52/1 36/51/1 
f 24/52/4 36/51/1 36/51/4 
s off
f 7/53/5 21/54/5 24/55/5 
f 24/55/5 8/56/5 7/53/5 
f 1/57/2 4/58/2 7/7/2 
f 7/7/2 6/6/2 1/57/2 
f 3/3/6 2/2/6 11/59/6 
f 11/59/6 10/60/6 3/3/6 
f 20/61/3 19/62/3 22/22/3 
f 22/22/3 21/21/3 20/61/3 
f 19/19/7 18/18/7 25/63/7 
f 25/63/7 22/64/7 19/19/7 
f 18/18/8 17/17/8 27/65/8 
f 27/65/8 25/63/8 18/18/8 
f 17/17/9 3/3/9 10/60/9 
f 10/60/9 27/65/9 17/17/9 
f 13/13/8 16/16/8 30/66/8 
f 30/66/8 29/67/8 13/13/8 
f 16/16/10 15/15/10 33/68/10 
f 33/68/10 30/66/10 16/16/10 
f 36/69/3 34/70/3 33/47/3 
f 33/47/3 35/46/3 36/69/3 
f 4/71/5 20/72/5 21/54/5 
f 21/54/5 7/53/5 4/71/5 
f 36/73/4 35/74/4 37/75/4 
f 37/75/4 38/76/4 36/73/4 
f 6/77/4 5/78/4 39/79/4 
f 39/79/4 40/80/4 6/77/4 
s 1
f 41/81/1 14/14/1 13/13/1 
f 13/13/1 42/82/1 41/81/1 
f 2/2/1 1/1/1 43/83/1 
f 43/83/1 44/84/1 2/2/1 
s off
f 29/85/5 32/86/5 45/87/5 
f 45/87/5 46/88/5 29/85/5 
f 12/89/5 11/90/5 47/91/5 
f 47/91/5 48/92/5 12/89/5 
f 1/93/4 6/77/4 40/80/4 
f 40/80/4 43/94/4 1/93/4 
f 35/74/4 14/95/4 41/96/4 
f 41/96/4 37/75/4 35/74/4 
f 42/82/11 13/13/11 29/67/11 
f 29/67/11 46/97/11 42/82/11 
f 11/59/11 2/2/11 44/84/11 
f 44/84/11 47/98/11 11/59/11 
f 41/81/8 42/82/8 46/97/8 
f 46/97/8 37/99/8 41/81/8 
f 44/84/12 43/83/12 40/100/12 
f 40/100/12 47/98/12 44/84/12 
f 37/101/2 46/102/2 45/103/2 
f 45/103/2 38/104/2 37/101/2 
f 47/105/13 40/106/13 39/107/13 
f 39/107/13 48/108/13 47/105/13 
# 80 faces

#
# object collision
#

v  275.0000 7.0000 -325.0000
v  280.0000 7.0000 -325.0000
v  280.0000 7.0000 -375.0000
v  275.0000 7.0000 -375.0000
v  275.0000 0.0000 -375.0000
v  275.0000 0.0000 -325.0000
v  280.0000 0.0000 -325.0000
v  280.0000 0.0000 -375.0000
# 8 vertices

vn 0.0000 1.0000 -0.0000
vn -1.0000 0.0000 -0.0000
vn 0.0000 0.0000 1.0000
vn 1.0000 0.0000 -0.0000
vn 0.0000 0.0000 -1.0000
# 5 vertex normals

vt 0.0000 0.0000 0.0000
vt 1.0000 0.0000 0.0000
vt 1.0000 1.0000 0.0000
vt 0.0000 1.0000 0.0000
# 4 texture coords

g collision
usemtl Room
s 1
f 49/109/14 50/110/14 51/111/14 
f 51/111/14 52/112/14 49/109/14 
s off
f 53/112/15 54/109/15 49/109/15 
f 49/109/15 52/112/15 53/112/15 
f 54/109/16 55/110/16 50/110/16 
f 50/110/16 49/109/16 54/109/16 
f 55/110/17 56/111/17 51/111/17 
f 51/111/17 50/110/17 55/110/17 
f 56/111/18 53/112/18 52/112/18 
f 52/112/18 51/111/18 56/111/18 
# 10 faces

#
# object collision
#

v  245.0000 7.0000 -325.0000
v  280.0000 7.0000 -325.0000
v  280.0000 7.0000 -330.0000
v  245.0000 7.0000 -330.0000
v  245.0000 0.0000 -330.0000
v  245.0000 0.0000 -325.0000
v  280.0000 0.0000 -325.0000
v  280.0000 0.0000 -330.0000
# 8 vertices

vn 0.0000 1.0000 -0.0000
vn -1.0000 0.0000 -0.0000
vn 0.0000 0.0000 1.0000
vn 1.0000 0.0000 -0.0000
vn 0.0000 0.0000 -1.0000
# 5 vertex normals

vt 0.0000 0.0000 0.0000
vt 1.0000 0.0000 0.0000
vt 1.0000 1.0000 0.0000
vt 0.0000 1.0000 0.0000
# 4 texture coords

g collision
usemtl Room
s 1
f 57/113/19 58/114/19 59/115/19 
f 59/115/19 60/116/19 57/113/19 
s off
f 61/116/20 62/113/20 57/113/20 
f 57/113/20 60/116/20 61/116/20 
f 62/113/21 63/114/21 58/114/21 
f 58/114/21 57/113/21 62/113/21 
f 63/114/22 64/115/22 59/115/22 
f 59/115/22 58/114/22 63/114/22 
f 64/115/23 61/116/23 60/116/23 
f 60/116/23 59/115/23 64/115/23 
# 10 faces

#
# object collision
#

v  200.0000 7.0000 -370.0000
v  280.0000 7.0000 -370.0000
v  280.0000 7.0000 -375.0000
v  200.0000 7.0000 -375.0000
v  200.0000 0.0000 -375.0000
v  200.0000 0.0000 -370.0000
v  280.0000 0.0000 -370.0000
v  280.0000 0.0000 -375.0000
# 8 vertices

vn 0.0000 1.0000 -0.0000
vn -1.0000 0.0000 -0.0000
vn 0.0000 0.0000 1.0000
vn 1.0000 0.0000 -0.0000
vn -0.0000 0.0000 -1.0000
# 5 vertex normals

vt 0.0000 0.0000 0.0000
vt 1.0000 0.0000 0.0000
vt 1.0000 1.0000 0.0000
vt 0.0000 1.0000 0.0000
# 4 texture coords

g collision
usemtl Room
s 1
f 65/117/24 66/118/24 67/119/24 
f 67/119/24 68/120/24 65/117/24 
s off
f 69/120/25 70/117/25 65/117/25 
f 65/117/25 68/120/25 69/120/25 
f 70/117/26 71/118/26 66/118/26 
f 66/118/26 65/117/26 70/117/26 
f 71/118/27 72/119/27 67/119/27 
f 67/119/27 66/118/27 71/118/27 
f 72/119/28 69/120/28 68/120/28 
f 68/120/28 67/119/28 72/119/28 
# 10 faces

#
# object collision
#

v  200.0000 7.0000 -325.0000
v  235.0000 7.0000 -325.0000
v  235.0000 7.0000 -330.0000
v  200.0000 7.0000 -330.0000
v  200.0000 0.0000 -330.0000
v  200.0000 0.0000 -325.0000
v  235.0000 0.0000 -325.0000
v  235.0000 0.0000 -330.0000
# 8 vertices

vn 0.0000 1.0000 -0.0000
vn -1.0000 0.0000 -0.0000
vn 0.0000 0.0000 1.0000
vn 1.0000 0.0000 -0.0000
vn 0.0000 0.0000 -1.0000
# 5 vertex normals

vt 0.0000 0.0000 0.0000
vt 1.0000 0.0000 0.0000
vt 1.0000 1.0000 0.0000
vt 0.0000 1.0000 0.0000
# 4 texture coords

g collision
usemtl Room
s 1
f 73/121/29 74/122/29 75/123/29 
f 75/123/29 76/124/29 73/121/29 
s off
f 77/124/30 78/121/30 73/121/30 
f 73/121/30 76/124/30 77/124/30 
f 78/121/31 79/122/31 74/122/31 
f 74/122/31 73/121/31 78/121/31 
f 79/122/32 80/123/32 75/123/32 
f 75/123/32 74/122/32 79/122/32 
f 80/123/33 77/124/33 76/124/33 
f 76/124/33 75/123/33 80/123/33 
# 10 faces

#
# object collision
#

v  200.0000 7.0000 -325.0000
v  205.0000 7.0000 -325.0000
v  205.0000 7.0000 -345.0000
v  200.0000 7.0000 -345.0000
v  200.0000 0.0000 -345.0000
v  200.0000 0.0000 -325.0000
v  205.0000 0.0000 -325.0000
v  205.0000 0.0000 -345.0000
# 8 vertices

vn 0.0000 1.0000 -0.0000
vn -1.0000 0.0000 -0.0000
vn 0.0000 0.0000 1.0000
vn 1.0000 0.0000 -0.0000
vn 0.0000 0.0000 -1.0000
# 5 vertex normals

vt 0.0000 0.0000 0.0000
vt 1.0000 0.0000 0.0000
vt 1.0000 1.0000 0.0000
vt 0.0000 1.0000 0.0000
# 4 texture coords

g collision
usemtl Room
s 1
f 81/125/34 82/126/34 83/127/34 
f 83/127/34 84/128/34 81/125/34 
s off
f 85/128/35 86/125/35 81/125/35 
f 81/125/35 84/128/35 85/128/35 
f 86/125/36 87/126/36 82/126/36 
f 82/126/36 81/125/36 86/125/36 
f 87/126/37 88/127/37 83/127/37 
f 83/127/37 82/126/37 87/126/37 
f 88/127/38 85/128/38 84/128/38 
f 84/128/38 83/127/38 88/127/38 
# 10 faces

#
# object collision
#

v  200.0000 7.0000 -355.0000
v  205.0000 7.0000 -355.0000
v  205.0000 7.0000 -375.0000
v  200.0000 7.0000 -375.0000
v  200.0000 0.0000 -375.0000
v  200.0000 0.0000 -355.0000
v  205.0000 0.0000 -355.0000
v  205.0000 0.0000 -375.0000
# 8 vertices

vn 0.0000 1.0000 -0.0000
vn -1.0000 0.0000 -0.0000
vn 0.0000 0.0000 1.0000
vn 1.0000 0.0000 -0.0000
vn 0.0000 0.0000 -1.0000
# 5 vertex normals

vt 0.0000 0.0000 0.0000
vt 1.0000 0.0000 0.0000
vt 1.0000 1.0000 0.0000
vt 0.0000 1.0000 0.0000
# 4 texture coords

g collision
usemtl Room
s 1
f 89/129/39 90/130/39 91/131/39 
f 91/131/39 92/132/39 89/129/39 
s off
f 93/132/40 94/129/40 89/129/40 
f 89/129/40 92/132/40 93/132/40 
f 94/129/41 95/130/41 90/130/41 
f 90/130/41 89/129/41 94/129/41 
f 95/130/42 96/131/42 91/131/42 
f 91/131/42 90/130/42 95/130/42 
f 96/131/43 93/132/43 92/132/43 
f 92/132/43 91/131/43 96/131/43 
# 10 faces

