# 3ds Max Wavefront OBJ Exporter v0.97b - (c)2007 guruware
# File Created: 19.05.2019 22:55:06

mtllib Room-1x10.mtl

#
# object room_1x10
#

v  -120.0000 7.0000 -525.0000
v  -116.4000 7.0000 -521.0000
v  -43.6000 7.0000 -521.0000
v  -40.0000 7.0000 -525.0000
v  -120.0000 0.0000 -525.0000
v  -120.0000 5.9500 -525.0000
v  -40.0000 5.9500 -525.0000
v  -40.0000 0.0000 -525.0000
v  -45.0000 0.0000 -520.0000
v  -45.0000 5.9500 -520.0000
v  -115.0000 5.9500 -520.0000
v  -115.0000 0.0000 -520.0000
v  -116.4000 7.0000 -479.0000
v  -120.0000 7.0000 -475.0000
v  -40.0000 7.0000 -475.0000
v  -43.6000 7.0000 -479.0000
v  -45.0000 5.9500 -480.0000
v  -45.0000 0.0000 -480.0000
v  -115.0000 0.0000 -480.0000
v  -115.0000 5.9500 -480.0000
v  -120.0000 5.9500 -475.0000
v  -40.0000 5.9500 -475.0000
v  -120.0000 0.0000 -475.0000
v  -40.0000 0.0000 -475.0000
v  -120.0000 5.9500 -494.9999
v  -120.0000 0.0000 -494.9999
v  -120.0000 0.0000 -505.0000
v  -120.0000 5.9500 -505.0000
v  -120.0000 7.0000 -493.9999
v  -116.4000 7.0000 -494.0000
v  -120.0000 7.0000 -506.0001
v  -116.4000 7.0000 -506.0000
v  -115.0000 0.0000 -495.0000
v  -115.0000 5.9500 -495.0000
v  -115.0000 5.9500 -505.0000
v  -115.0000 0.0000 -505.0000
# 36 vertices

vn 0.0000 1.0000 -0.0000
vn 0.0000 0.0000 -1.0000
vn -0.0000 0.0000 1.0000
vn -1.0000 0.0000 -0.0000
vn 1.0000 0.0000 0.0000
vn -0.0000 0.6897 0.7241
vn -0.6000 0.8000 -0.0000
vn 0.0000 0.6897 -0.7241
vn 0.6000 0.8000 0.0000
vn -0.0000 0.6897 -0.7241
vn -0.0000 0.0000 -1.0000
# 11 vertex normals

vt 0.7337 0.5451 0.0000
vt 0.7019 0.5804 0.0000
vt 0.0590 0.5804 0.0000
vt 0.0273 0.5451 0.0000
vt 0.5236 0.4559 0.0000
vt 0.5236 0.4788 0.0000
vt 0.2164 0.4788 0.0000
vt 0.2164 0.4559 0.0000
vt 0.8966 0.9721 0.0000
vt 0.8523 0.9721 0.0000
vt 0.8523 0.5810 0.0000
vt 0.8966 0.5810 0.0000
vt 0.7019 0.9513 0.0000
vt 0.7337 0.9866 0.0000
vt 0.0273 0.9866 0.0000
vt 0.0590 0.9513 0.0000
vt 0.9411 0.6711 0.0000
vt 0.9411 0.3732 0.0000
vt 0.9854 0.3732 0.0000
vt 0.9854 0.6711 0.0000
vt 0.8225 0.9746 0.0000
vt 0.7782 0.9746 0.0000
vt 0.7782 0.5836 0.0000
vt 0.8225 0.5836 0.0000
vt 0.0947 0.5334 0.0000
vt 0.0947 0.5272 0.0000
vt 0.4516 0.5272 0.0000
vt 0.4409 0.5334 0.0000
vt 0.6679 0.4015 0.0000
vt 0.0721 0.4015 0.0000
vt 0.0721 0.0291 0.0000
vt 0.6679 0.0291 0.0000
vt 0.6439 0.4387 0.0000
vt 0.4279 0.4387 0.0000
vt 0.4279 0.4130 0.0000
vt 0.6439 0.4130 0.0000
vt 0.5236 0.4828 0.0000
vt 0.2164 0.4828 0.0000
vt 0.6895 0.5892 0.0000
vt 0.0714 0.5892 0.0000
vt 0.0714 0.9425 0.0000
vt 0.6895 0.9425 0.0000
vt 0.0947 0.4923 0.0000
vt 0.4599 0.4923 0.0000
vt 0.4599 0.5272 0.0000
vt 0.6439 0.4432 0.0000
vt 0.4279 0.4432 0.0000
vt 0.3037 0.4168 0.0000
vt 0.3037 0.4443 0.0000
vt 0.2109 0.4443 0.0000
vt 0.2109 0.4168 0.0000
vt 0.0733 0.4443 0.0000
vt 0.0733 0.4168 0.0000
vt 0.1661 0.4168 0.0000
vt 0.1661 0.4443 0.0000
vt 0.7337 0.8188 0.0000
vt 0.7019 0.8188 0.0000
vt 0.7337 0.7129 0.0000
vt 0.7019 0.7129 0.0000
vt 0.9426 0.6832 0.0000
vt 0.9870 0.6832 0.0000
vt 0.9870 0.8032 0.0000
vt 0.9426 0.8032 0.0000
vt 0.9870 0.9811 0.0000
vt 0.9426 0.9811 0.0000
vt 0.9426 0.8611 0.0000
vt 0.9870 0.8611 0.0000
vt 0.0733 0.4491 0.0000
vt 0.1661 0.4491 0.0000
vt 0.3037 0.4491 0.0000
vt 0.2109 0.4491 0.0000
vt 0.6895 0.8100 0.0000
vt 0.6895 0.7217 0.0000
vt 0.7337 0.8100 0.0000
vt 0.7337 0.7217 0.0000
vt 0.9343 0.0630 0.0000
vt 0.9007 0.0630 0.0000
vt 0.9007 0.0231 0.0000
vt 0.9343 0.0231 0.0000
vt 0.9343 0.1140 0.0000
vt 0.9007 0.1140 0.0000
vt 0.9007 0.0741 0.0000
vt 0.9343 0.0741 0.0000
# 83 texture coords

g room_1x10
usemtl Room
s 1
f 1/1/1 2/2/1 3/3/1 
f 3/3/1 4/4/1 1/1/1 
s off
f 5/5/2 6/6/2 7/7/2 
f 7/7/2 8/8/2 5/5/2 
f 9/9/3 10/10/3 11/11/3 
f 11/11/3 12/12/3 9/9/3 
s 1
f 13/13/1 14/14/1 15/15/1 
f 15/15/1 16/16/1 13/13/1 
s off
f 17/17/4 10/18/4 9/19/4 
f 9/19/4 18/20/4 17/17/4 
f 19/21/2 20/22/2 17/23/2 
f 17/23/2 18/24/2 19/21/2 
f 14/25/3 21/26/3 22/27/3 
f 22/27/3 15/28/3 14/25/3 
s 1
f 15/15/1 4/4/1 3/3/1 
f 3/3/1 16/16/1 15/15/1 
f 8/29/1 5/30/1 23/31/1 
f 24/32/1 8/29/1 23/31/1 
f 24/32/4 24/32/1 23/31/1 
f 24/32/4 23/31/1 23/31/4 
s off
f 7/33/5 22/34/5 24/35/5 
f 24/35/5 8/36/5 7/33/5 
f 1/37/2 4/38/2 7/7/2 
f 7/7/2 6/6/2 1/37/2 
f 3/3/6 2/2/6 11/39/6 
f 11/39/6 10/40/6 3/3/6 
f 16/16/7 3/3/7 10/40/7 
f 10/40/7 17/41/7 16/16/7 
f 13/13/8 16/16/8 17/41/8 
f 17/41/8 20/42/8 13/13/8 
f 23/43/3 24/44/3 22/45/3 
f 22/45/3 21/26/3 23/43/3 
f 4/46/5 15/47/5 22/34/5 
f 22/34/5 7/33/5 4/46/5 
f 23/48/4 21/49/4 25/50/4 
f 25/50/4 26/51/4 23/48/4 
f 6/52/4 5/53/4 27/54/4 
f 27/54/4 28/55/4 6/52/4 
s 1
f 29/56/1 14/14/1 13/13/1 
f 13/13/1 30/57/1 29/56/1 
f 2/2/1 1/1/1 31/58/1 
f 31/58/1 32/59/1 2/2/1 
s off
f 20/60/5 19/61/5 33/62/5 
f 33/62/5 34/63/5 20/60/5 
f 12/64/5 11/65/5 35/66/5 
f 35/66/5 36/67/5 12/64/5 
f 1/68/4 6/52/4 28/55/4 
f 28/55/4 31/69/4 1/68/4 
f 21/49/4 14/70/4 29/71/4 
f 29/71/4 25/50/4 21/49/4 
f 30/57/9 13/13/9 20/42/9 
f 20/42/9 34/72/9 30/57/9 
f 11/39/9 2/2/9 32/59/9 
f 32/59/9 35/73/9 11/39/9 
f 29/56/10 30/57/10 34/72/10 
f 34/72/10 25/74/10 29/56/10 
f 32/59/6 31/58/6 28/75/6 
f 28/75/6 35/73/6 32/59/6 
f 25/76/11 34/77/11 33/78/11 
f 33/78/11 26/79/11 25/76/11 
f 35/80/3 28/81/3 27/82/3 
f 27/82/3 36/83/3 35/80/3 
# 62 faces

#
# object collision
#

v  -120.0000 7.0000 -475.0000
v  -40.0000 7.0000 -475.0000
v  -40.0000 7.0000 -480.0000
v  -120.0000 7.0000 -480.0000
v  -120.0000 0.0000 -480.0000
v  -120.0000 0.0000 -475.0000
v  -40.0000 0.0000 -475.0000
v  -40.0000 0.0000 -480.0000
# 8 vertices

vn 0.0000 1.0000 -0.0000
vn -1.0000 0.0000 -0.0000
vn 0.0000 0.0000 1.0000
vn 1.0000 0.0000 -0.0000
vn -0.0000 0.0000 -1.0000
# 5 vertex normals

vt 0.0000 0.0000 0.0000
vt 1.0000 0.0000 0.0000
vt 1.0000 1.0000 0.0000
vt 0.0000 1.0000 0.0000
# 4 texture coords

g collision
usemtl Room
s 1
f 37/84/12 38/85/12 39/86/12 
f 39/86/12 40/87/12 37/84/12 
s off
f 41/87/13 42/84/13 37/84/13 
f 37/84/13 40/87/13 41/87/13 
f 42/84/14 43/85/14 38/85/14 
f 38/85/14 37/84/14 42/84/14 
f 43/85/15 44/86/15 39/86/15 
f 39/86/15 38/85/15 43/85/15 
f 44/86/16 41/87/16 40/87/16 
f 40/87/16 39/86/16 44/86/16 
# 10 faces

#
# object collision
#

v  -120.0000 7.0000 -505.0000
v  -115.0000 7.0000 -505.0000
v  -115.0000 7.0000 -525.0000
v  -120.0000 7.0000 -525.0000
v  -120.0000 0.0000 -525.0000
v  -120.0000 0.0000 -505.0000
v  -115.0000 0.0000 -505.0000
v  -115.0000 0.0000 -525.0000
# 8 vertices

vn 0.0000 1.0000 -0.0000
vn -1.0000 0.0000 -0.0000
vn 0.0000 0.0000 1.0000
vn 1.0000 0.0000 -0.0000
vn 0.0000 0.0000 -1.0000
# 5 vertex normals

vt 0.0000 0.0000 0.0000
vt 1.0000 0.0000 0.0000
vt 1.0000 1.0000 0.0000
vt 0.0000 1.0000 0.0000
# 4 texture coords

g collision
usemtl Room
s 1
f 45/88/17 46/89/17 47/90/17 
f 47/90/17 48/91/17 45/88/17 
s off
f 49/91/18 50/88/18 45/88/18 
f 45/88/18 48/91/18 49/91/18 
f 50/88/19 51/89/19 46/89/19 
f 46/89/19 45/88/19 50/88/19 
f 51/89/20 52/90/20 47/90/20 
f 47/90/20 46/89/20 51/89/20 
f 52/90/21 49/91/21 48/91/21 
f 48/91/21 47/90/21 52/90/21 
# 10 faces

#
# object collision
#

v  -120.0000 7.0000 -520.0000
v  -40.0000 7.0000 -520.0000
v  -40.0000 7.0000 -525.0000
v  -120.0000 7.0000 -525.0000
v  -120.0000 0.0000 -525.0000
v  -120.0000 0.0000 -520.0000
v  -40.0000 0.0000 -520.0000
v  -40.0000 0.0000 -525.0000
# 8 vertices

vn 0.0000 1.0000 -0.0000
vn -1.0000 0.0000 -0.0000
vn 0.0000 0.0000 1.0000
vn 1.0000 0.0000 -0.0000
vn -0.0000 0.0000 -1.0000
# 5 vertex normals

vt 0.0000 0.0000 0.0000
vt 1.0000 0.0000 0.0000
vt 1.0000 1.0000 0.0000
vt 0.0000 1.0000 0.0000
# 4 texture coords

g collision
usemtl Room
s 1
f 53/92/22 54/93/22 55/94/22 
f 55/94/22 56/95/22 53/92/22 
s off
f 57/95/23 58/92/23 53/92/23 
f 53/92/23 56/95/23 57/95/23 
f 58/92/24 59/93/24 54/93/24 
f 54/93/24 53/92/24 58/92/24 
f 59/93/25 60/94/25 55/94/25 
f 55/94/25 54/93/25 59/93/25 
f 60/94/26 57/95/26 56/95/26 
f 56/95/26 55/94/26 60/94/26 
# 10 faces

#
# object collision
#

v  -120.0000 7.0000 -475.0000
v  -115.0000 7.0000 -475.0000
v  -115.0000 7.0000 -495.0000
v  -120.0000 7.0000 -495.0000
v  -120.0000 0.0000 -495.0000
v  -120.0000 0.0000 -475.0000
v  -115.0000 0.0000 -475.0000
v  -115.0000 0.0000 -495.0000
# 8 vertices

vn 0.0000 1.0000 -0.0000
vn -1.0000 0.0000 -0.0000
vn 0.0000 0.0000 1.0000
vn 1.0000 0.0000 -0.0000
vn 0.0000 0.0000 -1.0000
# 5 vertex normals

vt 0.0000 0.0000 0.0000
vt 1.0000 0.0000 0.0000
vt 1.0000 1.0000 0.0000
vt 0.0000 1.0000 0.0000
# 4 texture coords

g collision
usemtl Room
s 1
f 61/96/27 62/97/27 63/98/27 
f 63/98/27 64/99/27 61/96/27 
s off
f 65/99/28 66/96/28 61/96/28 
f 61/96/28 64/99/28 65/99/28 
f 66/96/29 67/97/29 62/97/29 
f 62/97/29 61/96/29 66/96/29 
f 67/97/30 68/98/30 63/98/30 
f 63/98/30 62/97/30 67/97/30 
f 68/98/31 65/99/31 64/99/31 
f 64/99/31 63/98/31 68/98/31 
# 10 faces

#
# object collision
#

v  -45.0000 7.0000 -475.0000
v  -40.0000 7.0000 -475.0000
v  -40.0000 7.0000 -525.0000
v  -45.0000 7.0000 -525.0000
v  -45.0000 0.0000 -525.0000
v  -45.0000 0.0000 -475.0000
v  -40.0000 0.0000 -475.0000
v  -40.0000 0.0000 -525.0000
# 8 vertices

vn 0.0000 1.0000 -0.0000
vn -1.0000 0.0000 -0.0000
vn 0.0000 0.0000 1.0000
vn 1.0000 0.0000 -0.0000
vn 0.0000 0.0000 -1.0000
# 5 vertex normals

vt 0.0000 0.0000 0.0000
vt 1.0000 0.0000 0.0000
vt 1.0000 1.0000 0.0000
vt 0.0000 1.0000 0.0000
# 4 texture coords

g collision
usemtl Room
s 1
f 69/100/32 70/101/32 71/102/32 
f 71/102/32 72/103/32 69/100/32 
s off
f 73/103/33 74/100/33 69/100/33 
f 69/100/33 72/103/33 73/103/33 
f 74/100/34 75/101/34 70/101/34 
f 70/101/34 69/100/34 74/100/34 
f 75/101/35 76/102/35 71/102/35 
f 71/102/35 70/101/35 75/101/35 
f 76/102/36 73/103/36 72/103/36 
f 72/103/36 71/102/36 76/102/36 
# 10 faces

